<?xml version="1.0" encoding="utf-8"?>
<!-- Generator: Adobe Illustrator 24.2.3, SVG Export Plug-In . SVG Version: 6.00 Build 0)  -->
<svg version="1.1" id="Layer_1" xmlns="http://www.w3.org/2000/svg" xmlns:xlink="http://www.w3.org/1999/xlink" x="0px" y="0px"
	 viewBox="0 0 1555 964" style="enable-background:new 0 0 1555 964;" xml:space="preserve">
<style type="text/css">
	.st0{fill:#0D001F;}
	.st1{fill:#828282;}
	.st2{fill:#736357;}
	.st3{fill:#909090;}
	.st4{fill:#BC9F77;}
	.st5{fill:#E0E9ED;}
	.st6{fill:#A7A9AC;}
	.st7{fill:none;}
	.st8{fill:#C6CDC7;}
	.st9{fill:#6D6E71;}
	.st10{fill:#808080;}
	.st11{fill:#575757;}
	.st12{fill:#616161;}
	.st13{fill:#919191;}
	.st14{fill:#858585;}
	.st15{fill:#BABABA;}
	.st16{fill:#FFF7D5;}
	.st17{fill:#FFFFFF;}
	.st18{fill:#A67C52;stroke:#000000;stroke-width:0.9005;stroke-miterlimit:8.3381;}
	.st19{fill:#1A0000;}
	.st20{fill:#B3B3B3;}
	.st21{display:none;fill:#666666;stroke:#000000;stroke-miterlimit:10;}
	.st22{display:none;opacity:0.24;fill:#3FA9F5;stroke:#000000;stroke-miterlimit:10;}
	.st23{display:none;fill:#4D4D4D;stroke:#000000;stroke-miterlimit:10;}
	.st24{display:none;opacity:0.4;fill:#3FA9F5;stroke:#000000;stroke-miterlimit:10;}
	.st25{display:none;opacity:0.18;fill:#FFFF00;}
	.st26{display:none;opacity:0.18;fill:#00FFFF;}
	.st27{display:none;}
	.st28{font-family:'MyriadPro-Regular';}
	.st29{font-size:17.028px;}
	.st30{font-size:17.03px;}
	.st31{font-size:16.5389px;}
	.st32{font-size:15.2344px;}
	.st33{font-size:15.5337px;}
	.st34{opacity:0;fill:#FFFFFF;stroke:#000000;stroke-miterlimit:10;}
	.st35{opacity:0;}
	.st36{font-size:14.005px;}
	.st37{font-size:12.2802px;}
	.st38{fill:#FFFFFF;stroke:#000000;stroke-miterlimit:10;}
	.st39{font-size:14.8399px;}
	.st40{font-size:5.6007px;}
	.st41{font-size:12px;}
</style>
<path class="st0" d="M1110.7,1.6v0.9H23.2H12.9H2.6v964h20.6h81.4h129h156.6h129h284.3h128.9h154.3h129h342.3v-12.3V2.2h-11.2
	h-307.4V1.6H1110.7L1110.7,1.6L1110.7,1.6z M320,16.7l70.2-0.3v0.9h129v-1.4l506.7-2.3v58.3H826.5h-11.2v60.7h11.2V85.7h199.5v153.2
	H826.5V209h-11.2v29.9h-9.7h-14.7v23.2H320.1L320,16.7L320,16.7z M23.2,175.6V18.1l130.8-0.7v158H23.2V175.6z M159.5,17.4l148.3-0.7
	V262H163.3v-69.9h-3.8v-2.4v-13.9V17.4L159.5,17.4z M104.5,953.9H23.2V657.2h159.6v3.5h74.6v-3.5h34.9v296.7h-58.6H104.5
	L104.5,953.9z M390.1,953.9h-82.3V657.2h44.1h74.6h221.2v296.7H519.4H390.1L390.1,953.9z M653.6,953.9V657.2h46.8v3.5h74.6v-3.5h93
	v296.7h-64.6H653.6L653.6,953.9z M1547.3,11v942.8h-331h-129H933h-59V657.2V650H426.7H352H23.2V189.5h28.1v2.4h74.6v-2.4H154V262H80
	v6.1h710.9v265.7H292.4v8.8h380.7v0.5h74.6v-0.5h58v-8.8v-14.2h233.5V513v-6.6v-493l0,0l71.4-0.3v0.7h129v-1.4L1547.3,11z
	 M805.8,262H1026v244.2H805.8V262L805.8,262z"/>
<polygon class="st1" points="827.4,133.3 816,133.3 816,209.6 827.4,209.6 827.4,239.6 1026.8,239.6 1026.8,86.4 827.4,86.4 "/>
<rect x="286.8" y="268.8" class="st1" width="6.1" height="273.5"/>
<path id="desk_x5F_31_1_" class="st2" d="M1142.9,729.5c4.2,3.3-2.5,64.1-2.5,64.1h40.7v-102h-102.9v37.9
	C1078.2,729.5,1138.7,726.1,1142.9,729.5z"/>
<path id="desk_x5F_33_1_" class="st2" d="M1153.2,911.2c-7.3,6.1-72.3,0-72.3,0s0,37.9,0,39.1h107.1V847.7H1152
	C1152.1,847.7,1160.7,905.1,1153.2,911.2z"/>
<rect id="desk_x5F_25_1_" x="1280.4" y="732" class="st2" width="85.9" height="41"/>
<path id="desk_x5F_30_1_" class="st2" d="M878.1,793.5h44.3c0,0-7.5-60.7-2.9-64.1c4.6-3.3,70.4,0,70.4,0v-37.9H877.9v101.9
	L878.1,793.5L878.1,793.5z"/>
<path id="desk_x5F_32_1_" class="st2" d="M914.4,910.3c-7.3-6.1,1.2-63.3,1.2-63.3h-35.9v102.5h107.1c0-1.4,0-39.1,0-39.1
	S921.7,916.3,914.4,910.3z"/>
<rect id="desk_x5F_28_1_" x="1281.2" y="909.3" class="st2" width="85.9" height="41"/>
<rect id="desk_x5F_29_1_" x="1453.9" y="908.5" class="st2" width="85.9" height="41"/>
<rect id="desk_x5F_26_1_" x="1368.2" y="731.7" class="st2" width="85.9" height="41"/>
<rect id="desk_x5F_22_1_" x="1280.4" y="688.9" class="st2" width="85.9" height="41"/>
<rect id="desk_x5F_23_1_" x="1368.2" y="688.9" class="st2" width="85.9" height="41"/>
<rect id="desk_x5F_27_1_" x="1456.2" y="732" class="st2" width="85.9" height="41"/>
<rect id="desk_x5F_24_1_" x="1456.2" y="688.9" class="st2" width="85.9" height="41"/>
<rect id="desk_x5F_14_1_" x="1041.5" y="481.2" class="st2" width="85.9" height="41"/>
<rect id="desk_x5F_15_1_" x="1128.8" y="481.2" class="st2" width="85.9" height="41"/>
<rect id="desk_x5F_16_1_" x="1280.4" y="465.1" class="st2" width="85.9" height="41"/>
<rect id="desk_x5F_19_1_" x="1280.4" y="507.5" class="st2" width="85.9" height="41"/>
<rect id="desk_x5F_20_1_" x="1369.2" y="507.5" class="st2" width="85.9" height="41"/>
<rect id="desk_x5F_21_1_" x="1457.7" y="509.2" class="st2" width="85.9" height="41"/>
<rect id="desk_x5F_18_1_" x="1457.7" y="466.5" class="st2" width="85.9" height="41"/>
<rect id="desk_x5F_9_1_" x="1045.2" y="280.2" class="st2" width="85.9" height="41"/>
<rect id="desk_x5F_10_1_" x="1132.4" y="280.2" class="st2" width="85.9" height="41"/>
<rect id="desk_x5F_5_1_" x="1044.6" y="236.5" class="st2" width="85.9" height="41"/>
<rect id="desk_x5F_6_1_" x="1132.4" y="236.5" class="st2" width="85.9" height="41"/>
<rect id="desk_x5F_11_1_" x="1280.4" y="279.4" class="st2" width="85.9" height="41"/>
<rect id="desk_x5F_7_1_" x="1280.8" y="236.5" class="st2" width="85.9" height="41"/>
<rect id="desk_x5F_12_1_" x="1368.2" y="281.3" class="st2" width="85.9" height="41"/>
<rect id="desk_x5F_13_1_" x="1455.8" y="281.1" class="st2" width="85.9" height="40.9"/>
<rect id="desk_x5F_8_1_" x="1454.9" y="236.3" class="st2" width="85.9" height="41"/>
<rect id="desk_x5F_1_1_" x="1043.2" y="19.3" class="st2" width="85.9" height="41"/>
<rect id="desk_x5F_2_1_" x="1129.4" y="19.3" class="st2" width="85.9" height="41"/>
<rect id="desk_x5F_3_1_" x="1301.8" y="16.8" class="st2" width="85.9" height="41"/>
<rect id="desk_x5F_4_1_" x="1456.2" y="15.8" class="st2" width="85.9" height="41"/>
<rect id="desk_x5F_17_1_" x="1369.2" y="465.1" class="st2" width="85.9" height="41"/>
<g>
	<g>
		<path class="st3" d="M571.7,746.7c0.4-0.9,1.5-4,4.6-5.9c1.9-1.2,3.5-1.4,6.9-1.7c3.1-0.3,5.8-0.7,9,0c3.3,0.7,7.1,1.4,9.5,4.7
			c0.6,0.7,2.1,2.9,2.3,5.9c0.2,5.5-5.2,9.5-4.6,10.1c0.6,0.5,4.8-2.6,4.6-2.9s-6.7,5.4-15.8,6.1c-2.1,0.2-6.7,0.2-11.2-2.4
			c-1.9-1.1-3.8-2.3-5.2-4.7C569.8,751.7,571.3,747.8,571.7,746.7z"/>
		<path class="st3" d="M572.4,737.7c3.5,2.3,6.7-2.6,13.3-3.3c8.8-0.9,13.9,6.6,17,3.6c1.5-1.5,0.4-3.8,2.7-8.7
			c1.7-3.6,3.3-4.1,3.1-5.4c-0.6-3.8-13.7-4.5-20.2-4.9c-9.7-0.5-20.2,0-20.2,0l0,0c0,0-2.5,1.9-2.7,4c-0.2,0.9,0.2,1.4,1.2,3.3
			c1.3,2.8,1.2,3.3,1.9,5.2C569.2,733.3,570.5,736.3,572.4,737.7z"/>
		<rect x="563.7" y="737.4" class="st3" width="5.6" height="15.2"/>
		<rect x="605.8" y="737.4" class="st3" width="5.2" height="13.9"/>
	</g>
	<rect x="568" y="744.7" width="4.6" height="2.6"/>
	<rect x="602.1" y="746.1" width="3.8" height="3.6"/>
</g>
<rect x="378.1" y="763.9" class="st2" width="227.6" height="101.4"/>
<g>
	<g>
		<path class="st3" d="M516.7,745.3c0.4-0.9,1.5-4,4.6-5.9c1.9-1.2,3.5-1.4,6.9-1.7c3.1-0.3,5.8-0.7,9,0c3.3,0.7,7.1,1.4,9.5,4.7
			c0.6,0.7,2.1,2.9,2.3,5.9c0.2,5.5-5.2,9.5-4.6,10.1c0.6,0.5,4.8-2.6,4.6-2.9s-6.7,5.4-15.8,6.1c-2.1,0.2-6.7,0.2-11.2-2.4
			c-1.9-1.1-3.8-2.3-5.2-4.7C514.8,750.5,516.3,746.4,516.7,745.3z"/>
		<path class="st3" d="M517.5,736.3c3.5,2.3,6.7-2.6,13.3-3.3c8.8-0.9,13.9,6.6,17,3.6c1.5-1.5,0.4-3.8,2.7-8.7
			c1.7-3.6,3.3-4.1,3.1-5.4c-0.6-3.8-13.7-4.5-20.2-4.9c-9.7-0.5-20.2,0-20.2,0l0,0c0,0-2.5,1.9-2.7,4c-0.2,0.9,0.2,1.4,1.2,3.3
			c1.3,2.8,1.2,3.3,1.9,5.2C514.2,731.9,515.6,735.1,517.5,736.3z"/>
		<rect x="508.7" y="736.2" class="st3" width="5.6" height="15.2"/>
		<rect x="550.9" y="736.2" class="st3" width="5.2" height="13.9"/>
	</g>
	<rect x="513.1" y="743.5" width="4.6" height="2.6"/>
	<rect x="547.1" y="744.7" width="3.8" height="3.6"/>
</g>
<g>
	<g>
		<path class="st3" d="M459.4,744.7c0.4-0.9,1.5-4,4.6-5.9c1.9-1.2,3.5-1.4,6.9-1.7c3.1-0.3,5.8-0.7,9,0c3.3,0.7,7.1,1.4,9.5,4.7
			c0.6,0.7,2.1,2.9,2.3,5.9c0.2,5.5-5.2,9.5-4.6,10.1c0.6,0.5,4.8-2.6,4.6-2.9s-6.7,5.4-15.8,6.1c-2.1,0.2-6.7,0.2-11.2-2.4
			c-1.9-1.1-3.8-2.3-5.2-4.7C457.5,749.6,459,745.7,459.4,744.7z"/>
		<path class="st3" d="M460.2,735.7c3.5,2.3,6.7-2.6,13.3-3.3c8.8-0.9,13.9,6.6,17,3.6c1.5-1.5,0.4-3.8,2.7-8.7
			c1.7-3.6,3.3-4.1,3.1-5.4c-0.6-3.8-13.7-4.5-20.2-4.9c-9.7-0.5-20.2,0-20.2,0l0,0c0,0-2.5,1.9-2.7,4c-0.2,0.9,0.2,1.4,1.2,3.3
			c1.3,2.8,1.2,3.3,1.9,5.2C456.7,731.2,458.3,734.3,460.2,735.7z"/>
		<rect x="451.5" y="735.3" class="st3" width="5.6" height="15.2"/>
		<rect x="493.4" y="735.3" class="st3" width="5.2" height="13.9"/>
	</g>
	<rect x="455.8" y="742.6" width="4.6" height="2.6"/>
	<rect x="489.8" y="743.8" width="3.8" height="3.6"/>
</g>
<g>
	<g>
		<path class="st3" d="M403.5,744.5c0.4-0.9,1.5-4,4.6-5.9c1.9-1.2,3.5-1.4,6.9-1.7c3.1-0.3,5.8-0.7,9,0c3.3,0.7,7.1,1.4,9.5,4.7
			c0.6,0.7,2.1,2.9,2.3,5.9c0.2,5.5-5.2,9.5-4.6,10.1c0.6,0.5,4.8-2.6,4.6-2.9c-0.2-0.3-6.7,5.4-15.8,6.1c-2.1,0.2-6.7,0.2-11.2-2.4
			c-1.9-1.1-3.8-2.3-5.2-4.7C401.8,749.5,403.1,745.5,403.5,744.5z"/>
		<path class="st3" d="M404.5,735.5c3.5,2.3,6.7-2.6,13.3-3.3c8.8-0.9,13.9,6.6,17,3.6c1.5-1.5,0.4-3.8,2.7-8.7
			c1.7-3.6,3.3-4.1,3.1-5.4c-0.6-3.8-13.7-4.5-20.2-4.9c-9.7-0.5-20.2,0-20.2,0l0,0c0,0-2.5,1.9-2.7,4c-0.2,0.9,0.2,1.4,1.2,3.3
			c1.3,2.8,1.2,3.3,1.9,5.2C401,731,402.5,734.1,404.5,735.5z"/>
		<rect x="395.7" y="735.1" class="st3" width="5.6" height="15.2"/>
		<rect x="437.6" y="735.1" class="st3" width="5.2" height="13.9"/>
	</g>
	<rect x="400" y="742.4" width="4.6" height="2.6"/>
	<rect x="434.1" y="743.8" width="3.8" height="3.6"/>
</g>
<g>
	<g>
		<path class="st3" d="M560.5,880c0.4,0.7,1.5,3.5,4.6,5.2c1.9,1.1,3.5,1.2,6.9,1.5c3.1,0.3,5.8,0.5,9,0c3.3-0.5,7.1-1.2,9.5-4.1
			c0.6-0.5,2.1-2.6,2.3-5.2c0.2-4.9-5.2-8.3-4.6-8.8c0.6-0.5,4.8,2.3,4.6,2.6c-0.2,0.3-6.7-4.9-15.8-5.4c-2.1-0.2-6.7-0.2-11.2,2.3
			c-1.9,0.9-3.8,1.9-5.2,4.1C558.7,875.5,560.1,879.1,560.5,880z"/>
		<path class="st3" d="M561.4,888c3.5-2.1,6.7,2.3,13.3,2.9c8.8,0.7,13.9-5.7,17-3.1c1.5,1.4,0.4,3.3,2.7,7.6
			c1.7,3.3,3.3,3.6,3.1,4.9c-0.6,3.5-13.7,4-20.2,4.3c-9.7,0.5-20.2,0-20.2,0l0,0c0,0-2.5-1.5-2.7-3.5c-0.2-0.9,0.2-1.2,1.2-2.9
			c1.3-2.4,1.2-2.8,1.9-4.7C558,891.9,559.3,889.2,561.4,888z"/>
		<rect x="552.4" y="874.8" class="st3" width="5.6" height="13.5"/>
		<rect x="594.6" y="876" class="st3" width="5.2" height="12.1"/>
	</g>
	<rect x="556.8" y="879.5" width="4.6" height="2.3"/>
	<rect x="590.8" y="877.6" width="3.8" height="3.1"/>
</g>
<g>
	<g>
		<path class="st3" d="M507,877.9c0.4,0.7,1.5,3.5,4.6,5.2c1.9,1.1,3.5,1.2,6.9,1.5c3.1,0.3,5.8,0.5,9,0s7.1-1.2,9.5-4.1
			c0.6-0.5,2.1-2.6,2.3-5.2c0.2-4.9-5.2-8.3-4.6-8.8c0.6-0.6,4.8,2.3,4.6,2.6c-0.2,0.3-6.7-4.9-15.8-5.4c-2.1-0.2-6.7-0.2-11.2,2.3
			c-1.9,0.9-3.8,1.9-5.2,4.1C505.1,873.5,506.6,876.9,507,877.9z"/>
		<path class="st3" d="M507.8,885.9c3.5-2.1,6.7,2.3,13.3,2.9c8.8,0.7,13.9-5.7,17-3.1c1.5,1.4,0.4,3.3,2.7,7.6
			c1.7,3.3,3.3,3.6,3.1,4.9c-0.6,3.5-13.7,4-20.2,4.3c-9.7,0.5-20.2,0-20.2,0l0,0c0,0-2.5-1.5-2.7-3.5c-0.2-0.9,0.2-1.2,1.2-2.9
			c1.3-2.4,1.2-2.8,1.9-4.7C504.3,889.9,505.9,886.9,507.8,885.9z"/>
		<rect x="499" y="872.7" class="st3" width="5.6" height="13.5"/>
		<rect x="541" y="873.9" class="st3" width="5.2" height="12.1"/>
	</g>
	<rect x="503.4" y="877.4" width="4.6" height="2.3"/>
	<rect x="537.3" y="875.3" width="3.8" height="3.1"/>
</g>
<g>
	<g>
		<path class="st3" d="M450.9,877.9c0.4,0.7,1.5,3.5,4.6,5.2c1.9,1.1,3.5,1.2,6.9,1.5c3.1,0.3,5.8,0.5,9,0c3.3-0.5,7.1-1.2,9.5-4.1
			c0.6-0.5,2.1-2.6,2.3-5.2c0.2-4.9-5.2-8.3-4.6-8.8c0.6-0.6,4.8,2.3,4.6,2.6c-0.2,0.3-6.7-4.9-15.8-5.4c-2.1-0.2-6.7-0.2-11.2,2.3
			c-1.9,0.9-3.8,1.9-5.2,4.1C449,873.5,450.5,876.9,450.9,877.9z"/>
		<path class="st3" d="M451.7,885.9c3.5-2.1,6.7,2.3,13.3,2.9c8.8,0.7,13.9-5.7,17-3.1c1.5,1.4,0.4,3.3,2.7,7.6
			c1.7,3.3,3.3,3.6,3.1,4.9c-0.6,3.5-13.7,4-20.2,4.3c-9.7,0.5-20.2,0-20.2,0l0,0c0,0-2.5-1.5-2.7-3.5c-0.2-0.9,0.2-1.2,1.2-2.9
			c1.3-2.4,1.2-2.8,1.9-4.7C448.2,889.9,449.7,886.9,451.7,885.9z"/>
		<rect x="442.8" y="872.7" class="st3" width="5.6" height="13.5"/>
		<rect x="484.9" y="873.9" class="st3" width="5.2" height="12.1"/>
	</g>
	<rect x="447.2" y="877.4" width="4.6" height="2.3"/>
	<rect x="481.2" y="875.3" width="3.8" height="3.1"/>
</g>
<g>
	<g>
		<path class="st3" d="M387.3,879.9c0.4,0.7,1.5,3.5,4.6,5.2c1.9,1.1,3.5,1.2,6.9,1.5c3.1,0.3,5.8,0.5,9,0c3.3-0.5,7.1-1.2,9.5-4.1
			c0.6-0.5,2.1-2.6,2.3-5.2c0.2-4.9-5.2-8.3-4.6-8.8c0.6-0.6,4.8,2.3,4.6,2.6c-0.2,0.3-6.7-4.9-15.8-5.4c-2.1-0.2-6.7-0.2-11.2,2.3
			c-1.9,0.9-3.8,1.9-5.2,4.1C385.6,875.3,386.9,878.8,387.3,879.9z"/>
		<path class="st3" d="M388.2,887.8c3.5-2.1,6.7,2.3,13.3,2.9c8.8,0.7,13.9-5.7,17-3.1c1.5,1.4,0.4,3.3,2.7,7.6
			c1.7,3.3,3.3,3.6,3.1,4.9c-0.6,3.5-13.7,4-20.2,4.3c-9.7,0.5-20.2,0-20.2,0l0,0c0,0-2.5-1.5-2.7-3.5c-0.2-0.9,0.2-1.2,1.2-2.9
			c1.3-2.4,1.2-2.8,1.9-4.7C384.8,891.8,386.1,888.9,388.2,887.8z"/>
		<rect x="379.2" y="874.7" class="st3" width="5.6" height="13.5"/>
		<rect x="421.4" y="875.9" class="st3" width="5.2" height="12.1"/>
	</g>
	<rect x="383.8" y="879.3" width="4.6" height="2.3"/>
	<rect x="417.6" y="877.3" width="3.8" height="3.1"/>
</g>
<g id="XMLID_130_">
	<rect x="246.7" y="268.8" class="st4" width="39.5" height="177.1"/>
</g>
<g id="XMLID_105_">
	<g id="XMLID_129_">
		<rect x="259.2" y="339.3" class="st5" width="26.2" height="67.1"/>
	</g>
	<g id="XMLID_106_">
		<g id="XMLID_118_">
			<g id="XMLID_126_">
				<path id="XMLID_128_" class="st6" d="M264.7,384.3v8.3c0,3.5,2.1,6.2,4.4,6.2h5.9c2.5,0,4.4-2.8,4.4-6.2v-8.3
					c0-3.5-2.1-6.2-4.4-6.2h-5.9C266.6,378,264.7,381,264.7,384.3z"/>
				<path id="XMLID_127_" d="M263.6,392.8v-8.3c0-4.3,2.5-7.6,5.6-7.6h5.9c3.1,0,5.6,3.5,5.6,7.6v8.3c0,4.3-2.5,7.6-5.6,7.6h-5.9
					C266,400.4,263.6,396.9,263.6,392.8z M278.5,384.3c0-2.6-1.5-4.7-3.5-4.7h-5.9c-1.9,0-3.5,2.1-3.5,4.7v8.3
					c0,2.6,1.5,4.7,3.5,4.7h5.9c1.9,0,3.5-2.1,3.5-4.7V384.3z"/>
			</g>
			<g id="XMLID_125_">
				<ellipse cx="272.1" cy="388.4" rx="3.3" ry="4.5"/>
			</g>
			<g id="XMLID_122_">
				<line id="XMLID_124_" class="st7" x1="279.6" y1="388.4" x2="264.7" y2="388.4"/>
				<rect id="XMLID_123_" x="264.7" y="387" width="14.9" height="2.9"/>
			</g>
			<g id="XMLID_119_">
				<line id="XMLID_121_" class="st7" x1="272.1" y1="398.8" x2="272.1" y2="378"/>
				<rect id="XMLID_120_" x="271" y="378" width="2.1" height="20.6"/>
			</g>
		</g>
		<g id="XMLID_107_">
			<g id="XMLID_115_">
				<path id="XMLID_117_" class="st6" d="M264.7,353v8.3c0,3.5,2.1,6.2,4.4,6.2h5.9c2.5,0,4.4-2.8,4.4-6.2V353
					c0-3.5-2.1-6.2-4.4-6.2h-5.9C266.6,346.7,264.7,349.7,264.7,353z"/>
				<path id="XMLID_116_" d="M263.6,361.3V353c0-4.3,2.5-7.6,5.6-7.6h5.9c3.1,0,5.6,3.5,5.6,7.6v8.3c0,4.3-2.5,7.6-5.6,7.6h-5.9
					C266,368.9,263.6,365.6,263.6,361.3z M278.5,353c0-2.6-1.5-4.7-3.5-4.7h-5.9c-1.9,0-3.5,2.1-3.5,4.7v8.3c0,2.6,1.5,4.7,3.5,4.7
					h5.9c1.9,0,3.5-2.1,3.5-4.7V353z"/>
			</g>
			<g id="XMLID_114_">
				<ellipse cx="272.1" cy="357.1" rx="3.3" ry="4.5"/>
			</g>
			<g id="XMLID_111_">
				<line id="XMLID_113_" class="st7" x1="279.6" y1="357.1" x2="264.7" y2="357.1"/>
				<rect id="XMLID_112_" x="264.7" y="355.7" width="14.9" height="2.9"/>
			</g>
			<g id="XMLID_108_">
				<line id="XMLID_110_" class="st7" x1="272.1" y1="367.5" x2="272.1" y2="346.7"/>
				<rect id="XMLID_109_" x="271" y="346.7" width="2.1" height="20.6"/>
			</g>
		</g>
	</g>
</g>
<g>
	<g>
		<path class="st3" d="M358.3,795.9c-0.8,0.3-3.8,1.4-5.6,4.3c-1.2,1.7-1.3,3.3-1.7,6.4c-0.4,2.9-0.6,5.4,0,8.5
			c0.6,3.2,1.3,6.6,4.4,9c0.6,0.5,2.7,2.1,5.6,2.1c5.4,0.2,9-4.9,9.5-4.3c0.5,0.6-2.5,4.5-2.9,4.3c-0.4-0.2,5.2-6.2,5.8-14.9
			c0.2-1.9,0.2-6.2-2.3-10.5c-1-1.7-2.1-3.6-4.4-4.9C363,794.2,359.2,795.5,358.3,795.9z"/>
		<path class="st3" d="M349.7,796.7c2.1,3.3-2.5,6.2-3.1,12.5c-0.8,8.1,6.1,13.1,3.5,16.1c-1.5,1.5-3.5,0.3-8.3,2.6
			c-3.5,1.7-3.8,3.1-5.2,2.9c-3.6-0.5-4.2-12.8-4.6-19.1c-0.6-9.2,0-19.1,0-19.1l0,0c0,0,1.7-2.4,3.8-2.6c1-0.2,1.3,0.3,3.1,1.1
			c2.7,1.2,3.1,1.1,5,1.9C345.4,793.5,348.5,794.9,349.7,796.7z"/>
		<rect x="349.5" y="788.4" class="st3" width="14.3" height="5.2"/>
		<rect x="349.5" y="827.9" class="st3" width="13" height="4.9"/>
	</g>
	<rect x="356.1" y="792.5" width="2.5" height="4.3"/>
	<rect x="357.4" y="824.3" width="3.5" height="3.6"/>
</g>
<rect x="744.3" y="802.3" class="st2" width="85.9" height="41"/>
<rect x="831.3" y="801.7" class="st2" width="31.9" height="147.5"/>
<g id="XMLID_100_">
	<g id="XMLID_101_">
		<g id="XMLID_104_">
			<path class="st8" d="M276.4,274.7h-19.1c-5.8,0-10.3,4-10.3,8.8v24.6c0,4.9,4.6,8.8,10.3,8.8h19.1c5.8,0,10.3-4,10.3-8.8v-24.6
				C286.6,278.7,282.1,274.7,276.4,274.7z"/>
		</g>
		<g id="XMLID_103_">
			<path class="st9" d="M276.6,295.8L276.6,295.8c0,1.7,1.5,2.9,3.5,2.9h13v-6.1h-13C278.1,292.9,276.6,294.1,276.6,295.8z"/>
		</g>
		<g id="XMLID_102_">
			<ellipse cx="266.8" cy="295.8" rx="5.9" ry="5"/>
		</g>
	</g>
</g>
<rect x="246.7" y="449.7" class="st2" width="43" height="81.7"/>
<g>
	<rect x="23" y="677.9" class="st2" width="43" height="274.7"/>
</g>
<rect id="register" x="489.1" y="420.1" class="st2" width="41.3" height="88.9"/>
<g>
	<g>
		<path class="st10" d="M471.7,444.9c-0.8,0.3-3.8,1.4-5.6,4.3c-1.2,1.7-1.3,3.3-1.7,6.4c-0.4,2.9-0.6,5.4,0,8.5
			c0.6,3.1,1.3,6.6,4.4,9c0.6,0.5,2.7,2.1,5.6,2.1c5.4,0.2,9-4.9,9.5-4.3c0.6,0.5-2.5,4.5-2.9,4.3c-0.4-0.2,5.2-6.2,5.8-14.9
			c0.2-1.9,0.2-6.2-2.3-10.5c-1-1.7-2.1-3.6-4.4-4.9C476.4,443.2,472.6,444.5,471.7,444.9z"/>
		<path class="st10" d="M463.1,445.6c2.1,3.3-2.5,6.2-3.1,12.5c-0.8,8.1,6.1,13.1,3.5,16.1c-1.5,1.5-3.5,0.3-8.3,2.6
			c-3.5,1.7-3.8,3.1-5.2,2.9c-3.6-0.5-4.2-12.8-4.6-19.1c-0.6-9.2,0-19.1,0-19.1l0,0c0,0,1.7-2.4,3.8-2.6c1-0.2,1.3,0.3,3.1,1.1
			c2.7,1.2,3.1,1.1,5,1.9C458.9,442.4,461.9,443.6,463.1,445.6z"/>
		<rect x="462.8" y="437.2" class="st10" width="14.3" height="5.2"/>
		<rect x="462.8" y="476.9" class="st10" width="13" height="4.9"/>
	</g>
	<rect x="469.7" y="441.4" class="st10" width="2.5" height="4.3"/>
	<rect x="470.7" y="473.3" class="st10" width="3.5" height="3.6"/>
</g>
<g>
	<g>
		<path class="st11" d="M929.8,761.6c1,0.2,4,0.5,7.1-1.1c1.9-1.1,2.9-2.3,4.8-4.7c1.9-2.4,3.5-4.3,4.6-7.5c1.2-2.9,2.5-6.2,1-9.9
			c-0.4-0.7-1.3-3.1-3.6-4.5c-4.4-2.6-10.3,0-10.5-0.7c-0.2-0.7,4.6-2.6,4.8-2.4c0.2,0.3-7.9,2.9-12.8,10.2
			c-1.2,1.5-3.5,5.4-3.6,10.2c0,1.9-0.2,4.1,1.3,6.2C924.9,760.9,928.9,761.6,929.8,761.6z"/>
		<path class="st11" d="M937.7,765c-0.2-3.8,5.6-4.1,9.4-9.3c5-6.7,1.7-14.2,5.6-15.4c2.1-0.7,3.3,1.4,8.4,1.5c4,0.2,5-0.9,5.9-0.2
			c2.9,2.1-3.3,13.1-6.1,18.7c-4.4,8.1-10.1,16.5-10.1,16.5l0,0c0,0-2.7,1.2-4.6,0.5c-0.8-0.3-1-0.9-2.1-2.4c-1.5-2.3-2.1-2.3-3.3-4
			C939.8,769.7,937.9,767.2,937.7,765z"/>
		<polygon class="st11" points="924,761.1 921.1,765.6 933.5,772.3 936.4,767.9 		"/>
		<polygon class="st11" points="946,727.7 943.5,732 954.7,738 957.2,733.7 		"/>
	</g>
	<polygon class="st11" points="930,760.7 927.7,764.4 929.8,765.6 932.1,761.8 	"/>
	<polygon class="st11" points="944.7,732.7 942.9,735.9 945.7,737.4 947.6,734.3 	"/>
</g>
<g>
	<g>
		<path class="st12" d="M939.6,905.6c0.6-0.7,2.5-2.9,2.5-6.2c0-2.1-0.6-3.5-1.9-6.2c-1.3-2.6-2.3-4.9-4.6-7.5
			c-2.1-2.4-4.6-5.2-8.6-5.7c-0.8-0.2-3.5-0.5-5.9,0.9c-4.6,2.4-5.2,8.3-5.9,8.1c-0.8-0.2-0.2-5,0.2-5c0.4,0-1.2,7.8,3.1,15.6
			c1,1.7,3.3,5.5,7.7,8.1c1.7,1.1,3.8,2.3,6.5,2.1C936.4,909.3,939,906.3,939.6,905.6z"/>
		<path class="st12" d="M946.4,900.9c-3.6-1.7-1.2-6.6-4-12.3c-3.6-7.5-12.4-8.5-11.4-12.3c0.4-1.9,2.9-1.9,5.8-6.1
			c2.1-3.1,1.7-4.5,2.9-4.9c3.5-1.2,10.5,9.2,14.1,14.4c5.4,7.8,10.1,16.5,10.1,16.5l0,0c0,0-0.2,2.9-1.9,4
			c-0.8,0.5-1.3,0.3-3.3,0.5c-2.9,0.2-3.3,0.5-5.4,0.7C951.8,901.7,948.5,902,946.4,900.9z"/>
		<polygon class="st12" points="936,910.1 938.9,914.6 951.2,908.1 948.3,903.4 		"/>
		<polygon class="st12" points="916.3,875.5 919,879.9 930.2,873.8 927.5,869.5 		"/>
	</g>
	<polygon class="st12" points="938.7,905.2 941,908.7 943.1,907.5 940.8,903.9 	"/>
	<polygon class="st12" points="920.3,879.1 922.3,882.1 925.1,880.5 923.2,877.4 	"/>
</g>
<g>
	<g>
		<path class="st13" d="M1131.3,907.5c-0.6-0.7-2.5-2.9-2.5-6.2c0-2.1,0.6-3.5,1.9-6.2c1.3-2.6,2.3-4.9,4.6-7.5
			c2.1-2.4,4.6-5.2,8.6-5.7c0.8-0.2,3.5-0.5,5.9,0.9c4.6,2.4,5.2,8.3,5.9,8.1s0.2-5-0.2-5s1.2,7.8-3.1,15.6c-1,1.7-3.3,5.5-7.7,8.1
			c-1.7,1.1-3.8,2.3-6.5,2.1C1134.3,911.3,1131.9,908.4,1131.3,907.5z"/>
		<path class="st13" d="M1124.2,902.9c3.6-1.7,1.2-6.6,4-12.3c3.6-7.5,12.4-8.5,11.4-12.3c-0.4-1.9-2.9-1.9-5.8-6.1
			c-2.1-3.1-1.7-4.5-2.9-4.9c-3.5-1.2-10.5,9.2-14.1,14.4c-5.4,7.8-10.1,16.5-10.1,16.5l0,0c0,0,0.2,2.9,1.9,4
			c0.8,0.5,1.3,0.3,3.3,0.5c2.9,0.2,3.3,0.5,5.4,0.7C1118.8,903.7,1122.1,903.9,1124.2,902.9z"/>
		<polygon class="st13" points="1134.7,912.2 1132.1,916.7 1119.6,909.9 1122.3,905.5 		"/>
		<polygon class="st13" points="1154.5,877.6 1151.9,881.7 1140.6,875.7 1143.3,871.5 		"/>
	</g>
	<polygon class="st13" points="1132.1,907 1129.8,910.7 1127.7,909.6 1130,905.8 	"/>
	<polygon class="st13" points="1150.6,881.1 1148.7,884.2 1145.8,882.6 1147.7,879.5 	"/>
</g>
<g>
	<g>
		<path class="st14" d="M1133.7,758.7c-1,0.2-4,0.5-7.1-1.1c-1.9-1.1-2.9-2.3-4.8-4.7c-1.9-2.4-3.5-4.3-4.6-7.5
			c-1.2-2.9-2.5-6.2-1-9.9c0.4-0.7,1.3-3.1,3.6-4.5c4.4-2.6,10.3,0,10.5-0.7c0.2-0.7-4.6-2.6-4.8-2.4c-0.2,0.3,7.9,2.9,12.8,10.2
			c1.2,1.5,3.5,5.4,3.6,10.2c0,1.9,0.2,4.1-1.3,6.2C1138.7,757.8,1134.7,758.5,1133.7,758.7z"/>
		<path class="st14" d="M1125.9,762c0.2-3.8-5.6-4.1-9.4-9.3c-5-6.7-1.7-14.2-5.6-15.4c-2.1-0.7-3.3,1.4-8.4,1.5
			c-4,0.2-5-0.9-5.9-0.2c-2.9,2.1,3.3,13.1,6.1,18.7c4.4,8.1,10.1,16.5,10.1,16.5l0,0c0,0,2.7,1.2,4.6,0.5c0.8-0.3,1-0.9,2.1-2.4
			c1.5-2.3,2.1-2.3,3.3-4C1124,766.7,1125.9,764.1,1125.9,762z"/>
		<polygon class="st14" points="1139.7,758 1142.5,762.5 1130.2,769.3 1127.3,764.7 		"/>
		<polygon class="st14" points="1117.7,724.6 1120.2,728.9 1109.1,735 1106.5,730.8 		"/>
	</g>
	<polygon class="st14" points="1133.7,757.7 1135.8,761.3 1133.7,762.5 1131.7,758.7 	"/>
	<polygon class="st14" points="1118.8,729.6 1120.8,732.7 1117.9,734.3 1116,731.2 	"/>
</g>
<rect x="111.8" y="362.8" class="st15" width="48.5" height="138.8"/>
<g id="XMLID_93_">
	<g id="XMLID_97_">
		<path id="XMLID_99_" class="st16" d="M676.4,658.1v35.5l0,0c21.4,0,39-15.9,39-35.5l0,0"/>
		<path id="XMLID_98_" d="M715.9,658.1h-1.3c0,19.1-16.8,34.6-37.6,34.8v-34.8h-1.3v36h0.6C698.1,694.1,715.9,678,715.9,658.1z"/>
	</g>
	<g id="XMLID_94_">
		<polyline id="XMLID_96_" class="st17" points="676.4,658.1 676.4,694.8 676.4,694.8 		"/>
		<rect id="XMLID_95_" x="674.2" y="658.1" width="4.4" height="36.7"/>
	</g>
</g>
<g id="XMLID_86_">
	<g id="XMLID_90_">
		<path id="XMLID_92_" class="st16" d="M331.9,656.9v35.5l0,0c21.4,0,39-15.9,39-35.5l0,0"/>
		<path id="XMLID_91_" d="M371.6,656.9h-1.3c0,19.1-16.8,34.6-37.6,34.8v-34.8h-1.3v36h0.6C353.9,692.9,371.6,676.8,371.6,656.9z"/>
	</g>
	<g id="XMLID_87_">
		<polyline id="XMLID_89_" class="st17" points="331.9,656.9 331.9,693.6 331.9,693.6 		"/>
		<rect id="XMLID_88_" x="329.8" y="656.9" width="4.4" height="36.7"/>
	</g>
</g>
<g id="XMLID_79_">
	<g id="XMLID_83_">
		<path id="XMLID_85_" class="st16" d="M279.6,656.9v35.5l0,0c-21.4,0-39-15.9-39-35.5l0,0"/>
		<path id="XMLID_84_" d="M239.9,656.9h1.3c0,19.1,16.8,34.6,37.6,34.8v-34.8h1.3v36h-0.6C257.7,692.9,239.9,676.8,239.9,656.9z"/>
	</g>
	<g id="XMLID_80_">
		<polyline id="XMLID_82_" class="st17" points="279.6,656.9 279.6,693.6 279.6,693.6 		"/>
		<rect id="XMLID_81_" x="277.3" y="656.9" width="4.4" height="36.7"/>
	</g>
</g>
<g id="XMLID_72_">
	<g id="XMLID_76_">
		<path id="XMLID_78_" class="st16" d="M743.1,266.2v35.5l0,0c-21.4,0-39-15.9-39-35.5l0,0"/>
		<path id="XMLID_77_" d="M703.6,266.2h1.3c0,19.1,16.8,34.6,37.6,34.8v-34.8h1.3v36h-0.8C721.2,302.2,703.6,285.9,703.6,266.2z"/>
	</g>
	<g id="XMLID_73_">
		<polyline id="XMLID_75_" class="st17" points="743.1,266.2 743.1,302.8 743.1,302.8 		"/>
		<rect id="XMLID_74_" x="740.8" y="266.2" width="4.4" height="36.7"/>
	</g>
</g>
<g id="XMLID_65_">
	<g id="XMLID_69_">
		<path id="XMLID_71_" class="st16" d="M803.9,468.6h37.8l0,0c0-20.1-17-36.5-37.8-36.5l0,0"/>
		<path id="XMLID_70_" d="M803.9,431.4v1.2c20.2,0,36.8,15.7,37.2,35.3h-37.2v1.2h38.4v-0.5C842.2,448,825.1,431.4,803.9,431.4z"/>
	</g>
	<g id="XMLID_66_">
		<polyline id="XMLID_68_" class="st17" points="803.9,468.6 842.8,468.6 842.8,468.6 		"/>
		<rect id="XMLID_67_" x="803.9" y="466.5" width="39" height="4.1"/>
	</g>
</g>
<g id="XMLID_58_">
	<g id="XMLID_62_">
		<path id="XMLID_64_" class="st16" d="M160.1,244.4h24.5l0,0c0-15.4-10.8-27.9-24.5-27.9l0,0"/>
		<path id="XMLID_63_" d="M160.1,216v0.9c13.1,0,23.9,12.1,24.1,27h-24.1v0.9h24.8v-0.5C184.9,228.7,173.6,216,160.1,216z"/>
	</g>
	<g id="XMLID_59_">
		<polyline id="XMLID_61_" class="st17" points="160.1,244.4 185.3,244.4 185.3,244.4 		"/>
		<rect id="XMLID_60_" x="160.1" y="242.7" width="25.4" height="3.1"/>
	</g>
</g>
<g id="XMLID_51_">
	<g id="XMLID_55_">
		<path id="XMLID_57_" class="st16" d="M130.5,185.7v-35.5l0,0c-21.4,0-39,15.9-39,35.5l0,0"/>
		<path id="XMLID_56_" d="M90.8,185.7h1.3c0-19.1,16.8-34.6,37.6-34.8v34.8h1.3v-36h-0.8C108.6,149.7,90.8,165.9,90.8,185.7z"/>
	</g>
	<g id="XMLID_52_">
		<polyline id="XMLID_54_" class="st17" points="130.5,185.7 130.5,149.1 130.5,149.1 		"/>
		<rect id="XMLID_53_" x="128.2" y="149.1" width="4.4" height="36.7"/>
	</g>
</g>
<g>
	<g>
		<rect x="575.1" y="19.4" class="st18" width="17.9" height="114.9"/>
		<rect x="557.2" y="19.4" class="st18" width="17.9" height="114.9"/>
		<rect x="539.3" y="19.4" class="st18" width="17.9" height="114.9"/>
		<rect x="521.1" y="19.4" class="st18" width="17.9" height="114.9"/>
		<rect x="503.2" y="19.4" class="st18" width="17.9" height="114.9"/>
		<rect x="485" y="19.4" class="st18" width="17.9" height="114.9"/>
		<rect x="467.1" y="19.4" class="st18" width="17.9" height="114.9"/>
		<rect x="449.2" y="19.4" class="st18" width="17.9" height="114.9"/>
		<rect x="430.6" y="19.4" class="st18" width="17.9" height="114.9"/>
		<rect x="411.9" y="19.4" class="st18" width="17.9" height="114.9"/>
		<rect x="394" y="19.4" class="st18" width="17.9" height="114.9"/>
	</g>
	<rect x="315.9" y="19.4" class="st18" width="78.1" height="244.9"/>
	<g>
		<rect x="575.7" y="139.2" class="st18" width="17.9" height="122.9"/>
		<rect x="557.8" y="139.2" class="st18" width="17.9" height="122.9"/>
		<rect x="539.6" y="139.2" class="st18" width="17.9" height="122.9"/>
		<rect x="521.7" y="139.2" class="st18" width="17.9" height="122.9"/>
		<rect x="503.8" y="139.2" class="st18" width="17.9" height="122.9"/>
		<rect x="485.6" y="139.2" class="st18" width="17.9" height="122.9"/>
		<rect x="467.7" y="139.2" class="st18" width="17.9" height="122.9"/>
		<rect x="449.7" y="139.2" class="st18" width="17.9" height="122.9"/>
		<rect x="431" y="139.2" class="st18" width="17.9" height="122.9"/>
		<rect x="412.5" y="139.2" class="st18" width="17.9" height="122.9"/>
		<rect x="394.6" y="139.2" class="st18" width="17.9" height="122.9"/>
	</g>
</g>
<g>
	<g>
		<path class="st3" d="M1395.5,785.9c0.4,0.7,1.5,3.5,4.6,5.2c1.9,1.1,3.5,1.2,6.9,1.5c3.1,0.3,5.8,0.5,9,0c3.3-0.5,7.1-1.2,9.5-4.1
			c0.6-0.5,2.1-2.6,2.3-5.2c0.2-4.9-5.2-8.3-4.6-8.8c0.6-0.5,4.8,2.3,4.6,2.6s-6.7-4.9-15.8-5.4c-2.1-0.2-6.7-0.2-11.2,2.3
			c-1.9,0.9-3.8,1.9-5.2,4.1C1393.6,781.3,1395.2,785,1395.5,785.9z"/>
		<path class="st3" d="M1396.3,793.8c3.5-2.1,6.7,2.3,13.3,2.9c8.8,0.7,13.9-5.7,17-3.1c1.5,1.4,0.4,3.3,2.7,7.6
			c1.7,3.3,3.3,3.6,3.1,4.9c-0.6,3.5-13.7,4-20.2,4.3c-9.7,0.5-20.2,0-20.2,0l0,0c0,0-2.5-1.5-2.7-3.5c-0.2-0.9,0.2-1.2,1.2-2.9
			c1.3-2.4,1.2-2.8,1.9-4.7C1393,797.8,1394.4,795,1396.3,793.8z"/>
		<rect x="1387.5" y="780.7" class="st3" width="5.6" height="13.5"/>
		<rect x="1429.7" y="781.9" class="st3" width="5.2" height="12.1"/>
	</g>
	<rect x="1391.9" y="785.3" width="4.6" height="2.3"/>
	<rect x="1425.9" y="783.5" width="3.8" height="3.1"/>
</g>
<g>
	<g>
		<path class="st3" d="M1317.4,786.9c0.4,0.7,1.5,3.5,4.6,5.2c1.9,1.1,3.5,1.2,6.9,1.5c3.1,0.3,5.8,0.5,9,0c3.3-0.5,7.1-1.2,9.5-4.1
			c0.6-0.5,2.1-2.6,2.3-5.2c0.2-4.9-5.2-8.3-4.6-8.8c0.6-0.5,4.8,2.3,4.6,2.6c-0.2,0.3-6.7-4.9-15.8-5.4c-2.1-0.2-6.7-0.2-11.2,2.3
			c-1.9,0.9-3.8,1.9-5.2,4.1C1315.5,782.4,1317.1,786,1317.4,786.9z"/>
		<path class="st3" d="M1318.2,794.9c3.5-2.1,6.7,2.3,13.3,2.9c8.8,0.7,13.9-5.7,17-3.1c1.5,1.4,0.4,3.3,2.7,7.6
			c1.7,3.3,3.3,3.6,3.1,4.9c-0.6,3.5-13.7,4-20.2,4.3c-9.7,0.5-20.2,0-20.2,0l0,0c0,0-2.5-1.5-2.7-3.5c-0.2-0.9,0.2-1.2,1.2-2.9
			c1.3-2.4,1.2-2.8,1.9-4.7C1314.8,798.9,1316.3,796.1,1318.2,794.9z"/>
		<rect x="1309.4" y="781.7" class="st3" width="5.6" height="13.5"/>
		<rect x="1351.6" y="782.9" class="st3" width="5.2" height="12.1"/>
	</g>
	<rect x="1313.8" y="786.4" width="4.6" height="2.3"/>
	<rect x="1347.8" y="784.5" width="3.8" height="3.1"/>
</g>
<g>
	<g>
		<path class="st3" d="M1475.8,786.2c0.4,0.7,1.5,3.5,4.6,5.2c1.9,1.1,3.5,1.2,6.9,1.5c3.1,0.3,5.8,0.5,9,0c3.3-0.5,7.1-1.2,9.5-4.1
			c0.6-0.5,2.1-2.6,2.3-5.2c0.2-4.9-5.2-8.3-4.6-8.8c0.6-0.5,4.8,2.3,4.6,2.6c-0.2,0.3-6.7-4.9-15.8-5.4c-2.1-0.2-6.7-0.2-11.2,2.3
			c-1.9,0.9-3.8,1.9-5.2,4.1C1474.1,781.7,1475.5,785.2,1475.8,786.2z"/>
		<path class="st3" d="M1476.8,794.2c3.5-2.1,6.7,2.3,13.3,2.9c8.8,0.7,13.9-5.7,17-3.1c1.5,1.4,0.4,3.3,2.7,7.6
			c1.7,3.3,3.3,3.6,3.1,4.9c-0.6,3.5-13.7,4-20.2,4.3c-9.7,0.5-20.2,0-20.2,0l0,0c0,0-2.5-1.5-2.7-3.5c-0.2-0.9,0.2-1.2,1.2-2.9
			c1.3-2.4,1.2-2.8,1.9-4.7C1473.4,798.1,1474.7,795.2,1476.8,794.2z"/>
		<rect x="1467.9" y="781" class="st3" width="5.6" height="13.5"/>
		<rect x="1510.1" y="782.2" class="st3" width="5.2" height="12.1"/>
	</g>
	<rect x="1472.3" y="785.7" width="4.6" height="2.3"/>
	<rect x="1506.3" y="783.6" width="3.8" height="3.1"/>
</g>
<g>
	<g>
		<path class="st3" d="M1310.5,564.6c0.4,0.7,1.5,3.5,4.6,5.2c1.9,1.1,3.5,1.2,6.9,1.5c3.1,0.3,5.8,0.5,9,0c3.3-0.5,7.1-1.2,9.5-4.1
			c0.6-0.5,2.1-2.6,2.3-5.2c0.2-4.9-5.2-8.3-4.6-8.8c0.6-0.5,4.8,2.3,4.6,2.6c-0.2,0.3-6.7-4.9-15.8-5.4c-2.1-0.2-6.7-0.2-11.2,2.3
			c-1.9,0.9-3.8,1.9-5.2,4.1C1308.6,560.2,1310.1,563.6,1310.5,564.6z"/>
		<path class="st3" d="M1311.3,572.6c3.5-2.1,6.7,2.3,13.3,2.9c8.8,0.7,13.9-5.7,17-3.1c1.5,1.4,0.4,3.3,2.7,7.6
			c1.7,3.3,3.3,3.6,3.1,4.9c-0.6,3.5-13.7,4-20.2,4.3c-9.7,0.5-20.2,0-20.2,0l0,0c0,0-2.5-1.5-2.7-3.5c-0.2-0.9,0.2-1.2,1.2-2.9
			c1.3-2.4,1.2-2.8,1.9-4.7C1308,576.6,1309.4,573.6,1311.3,572.6z"/>
		<rect x="1302.6" y="559.4" class="st3" width="5.6" height="13.5"/>
		<rect x="1344.7" y="560.6" class="st3" width="5.2" height="12.1"/>
	</g>
	<rect x="1306.9" y="564.1" width="4.6" height="2.3"/>
	<rect x="1340.9" y="562" width="3.8" height="3.1"/>
</g>
<g>
	<g>
		<path class="st3" d="M1393.2,563.4c0.4,0.7,1.5,3.5,4.6,5.2c1.9,1.1,3.5,1.2,6.9,1.5c3.1,0.3,5.8,0.5,9,0c3.3-0.5,7.1-1.2,9.5-4.1
			c0.6-0.5,2.1-2.6,2.3-5.2c0.2-4.9-5.2-8.3-4.6-8.8c0.6-0.5,4.8,2.3,4.6,2.6c-0.2,0.3-6.7-4.9-15.8-5.4c-2.1-0.2-6.7-0.2-11.2,2.3
			c-1.9,0.9-3.8,1.9-5.2,4.1C1391.3,558.9,1392.8,562.6,1393.2,563.4z"/>
		<path class="st3" d="M1394,571.4c3.5-2.1,6.7,2.3,13.3,2.9c8.8,0.7,13.9-5.7,17-3.1c1.5,1.4,0.4,3.3,2.7,7.6
			c1.7,3.3,3.3,3.6,3.1,4.9c-0.6,3.5-13.7,4-20.2,4.3c-9.7,0.5-20.2,0-20.2,0l0,0c0,0-2.5-1.5-2.7-3.5c-0.2-0.9,0.2-1.2,1.2-2.9
			c1.3-2.4,1.2-2.8,1.9-4.7C1390.7,575.4,1392.1,572.6,1394,571.4z"/>
		<rect x="1385.2" y="558.2" class="st3" width="5.6" height="13.5"/>
		<rect x="1427.4" y="559.7" class="st3" width="5.2" height="12.1"/>
	</g>
	<rect x="1389.6" y="563.1" width="4.6" height="2.3"/>
	<rect x="1423.6" y="561" width="3.8" height="3.1"/>
</g>
<g>
	<g>
		<path class="st3" d="M1480.4,565.5c0.4,0.7,1.5,3.5,4.6,5.2c1.9,1.1,3.5,1.2,6.9,1.5c3.1,0.3,5.8,0.5,9,0c3.3-0.5,7.1-1.2,9.5-4.1
			c0.6-0.5,2.1-2.6,2.3-5.2c0.2-4.9-5.2-8.3-4.6-8.8c0.6-0.5,4.8,2.3,4.6,2.6c-0.2,0.3-6.7-4.9-15.8-5.4c-2.1-0.2-6.7-0.2-11.2,2.3
			c-1.9,0.9-3.8,1.9-5.2,4.1C1478.5,561,1480.1,564.6,1480.4,565.5z"/>
		<path class="st3" d="M1481.2,573.4c3.5-2.1,6.7,2.3,13.3,2.9c8.8,0.7,13.9-5.7,17-3.1c1.5,1.4,0.4,3.3,2.7,7.6
			c1.7,3.3,3.3,3.6,3.1,4.9c-0.6,3.5-13.7,4-20.2,4.3c-9.7,0.5-20.2,0-20.2,0l0,0c0,0-2.5-1.5-2.7-3.5c-0.2-0.9,0.2-1.2,1.2-2.9
			c1.3-2.4,1.2-2.8,1.9-4.7C1478,577.4,1479.3,574.7,1481.2,573.4z"/>
		<rect x="1472.5" y="560.3" class="st3" width="5.6" height="13.5"/>
		<rect x="1514.6" y="561.5" class="st3" width="5.2" height="12.1"/>
	</g>
	<rect x="1476.8" y="565.2" width="4.6" height="2.3"/>
	<rect x="1510.9" y="563.1" width="3.8" height="3.1"/>
</g>
<g>
	<g>
		<path class="st3" d="M1308.2,335.5c0.4,0.7,1.5,3.5,4.6,5.2c1.9,1.1,3.5,1.2,6.9,1.5c3.1,0.3,5.8,0.5,9,0s7.1-1.2,9.5-4.1
			c0.6-0.5,2.1-2.6,2.3-5.2c0.2-4.9-5.2-8.3-4.6-8.8c0.6-0.5,4.8,2.3,4.6,2.6c-0.2,0.3-6.7-4.9-15.8-5.4c-2.1-0.2-6.7-0.2-11.2,2.3
			c-1.9,0.9-3.8,1.9-5.2,4.1C1306.3,331.2,1307.8,334.6,1308.2,335.5z"/>
		<path class="st3" d="M1309,343.4c3.5-2.1,6.7,2.3,13.3,2.9c8.8,0.7,13.9-5.7,17-3.1c1.5,1.4,0.4,3.3,2.7,7.6
			c1.7,3.3,3.3,3.6,3.1,4.9c-0.6,3.5-13.7,4-20.2,4.3c-9.7,0.5-20.2,0-20.2,0l0,0c0,0-2.5-1.5-2.7-3.5c-0.2-0.9,0.2-1.2,1.2-2.9
			c1.3-2.4,1.2-2.8,1.9-4.7C1305.7,347.4,1307.1,344.6,1309,343.4z"/>
		<rect x="1300.3" y="330.3" class="st3" width="5.6" height="13.5"/>
		<rect x="1342.4" y="331.7" class="st3" width="5.2" height="12.1"/>
	</g>
	<rect x="1304.6" y="335.1" width="4.6" height="2.3"/>
	<rect x="1338.6" y="333" width="3.8" height="3.1"/>
</g>
<g>
	<g>
		<path class="st3" d="M1393.2,339.6c0.4,0.7,1.5,3.5,4.6,5.2c1.9,1.1,3.5,1.2,6.9,1.5c3.1,0.3,5.8,0.5,9,0c3.3-0.5,7.1-1.2,9.5-4.1
			c0.6-0.5,2.1-2.6,2.3-5.2c0.2-4.9-5.2-8.3-4.6-8.8c0.6-0.5,4.8,2.3,4.6,2.6c-0.2,0.3-6.7-4.9-15.8-5.4c-2.1-0.2-6.7-0.2-11.2,2.3
			c-1.9,0.9-3.8,1.9-5.2,4.1C1391.3,335.1,1392.8,338.8,1393.2,339.6z"/>
		<path class="st3" d="M1394,347.6c3.5-2.1,6.7,2.3,13.3,2.9c8.8,0.7,13.9-5.7,17-3.1c1.5,1.4,0.4,3.3,2.7,7.6
			c1.7,3.3,3.3,3.6,3.1,4.9c-0.6,3.5-13.7,4-20.2,4.3c-9.7,0.5-20.2,0-20.2,0l0,0c0,0-2.5-1.5-2.7-3.5c-0.2-0.9,0.2-1.2,1.2-2.9
			c1.3-2.4,1.2-2.8,1.9-4.7C1390.7,351.6,1392.1,348.8,1394,347.6z"/>
		<rect x="1385.2" y="334.4" class="st3" width="5.6" height="13.5"/>
		<rect x="1427.4" y="335.6" class="st3" width="5.2" height="12.1"/>
	</g>
	<rect x="1389.6" y="339.1" width="4.6" height="2.3"/>
	<rect x="1423.6" y="337.2" width="3.8" height="3.1"/>
</g>
<g>
	<g>
		<path class="st3" d="M1478.1,338.2c0.4,0.7,1.5,3.5,4.6,5.2c1.9,1.1,3.5,1.2,6.9,1.5c3.1,0.3,5.8,0.5,9,0s7.1-1.2,9.5-4.1
			c0.6-0.5,2.1-2.6,2.3-5.2c0.2-4.9-5.2-8.3-4.6-8.8c0.6-0.6,4.8,2.3,4.6,2.6c-0.2,0.3-6.7-4.9-15.8-5.4c-2.1-0.2-6.7-0.2-11.2,2.3
			c-1.9,0.9-3.8,1.9-5.2,4.1C1476.4,333.8,1477.8,337.3,1478.1,338.2z"/>
		<path class="st3" d="M1479.1,346.2c3.5-2.1,6.7,2.3,13.3,2.9c8.8,0.7,13.9-5.7,17-3.1c1.5,1.4,0.4,3.3,2.7,7.6
			c1.7,3.3,3.3,3.6,3.1,4.9c-0.6,3.5-13.7,4-20.2,4.3c-9.7,0.5-20.2,0-20.2,0l0,0c0,0-2.5-1.5-2.7-3.5c-0.2-0.9,0.2-1.2,1.2-2.9
			c1.3-2.4,1.2-2.8,1.9-4.7C1475.6,350.1,1477,347.4,1479.1,346.2z"/>
		<rect x="1470.2" y="333" class="st3" width="5.6" height="13.5"/>
		<rect x="1512.3" y="334.3" class="st3" width="5.2" height="12.1"/>
	</g>
	<rect x="1474.5" y="337.7" width="4.6" height="2.3"/>
	<rect x="1508.6" y="335.8" width="3.8" height="3.1"/>
</g>
<g>
	<g>
		<path class="st3" d="M1078.7,335.8c0.4,0.7,1.5,3.5,4.6,5.2c1.9,1.1,3.5,1.2,6.9,1.5c3.1,0.3,5.8,0.5,9,0c3.3-0.5,7.1-1.2,9.5-4.1
			c0.6-0.5,2.1-2.6,2.3-5.2c0.2-4.9-5.2-8.3-4.6-8.8c0.6-0.5,4.8,2.3,4.6,2.6c-0.2,0.3-6.7-4.9-15.8-5.4c-2.1-0.2-6.7-0.2-11.2,2.3
			c-1.9,0.9-3.8,1.9-5.2,4.1C1077,331.3,1078.4,334.7,1078.7,335.8z"/>
		<path class="st3" d="M1079.7,343.7c3.5-2.1,6.7,2.3,13.3,2.9c8.8,0.7,13.9-5.7,17-3.1c1.5,1.4,0.4,3.3,2.7,7.6
			c1.7,3.3,3.3,3.6,3.1,4.9c-0.6,3.5-13.7,4-20.2,4.3c-9.7,0.5-20.2,0-20.2,0l0,0c0,0-2.5-1.5-2.7-3.5c-0.2-0.9,0.2-1.2,1.2-2.9
			c1.3-2.4,1.2-2.8,1.9-4.7C1076.3,347.8,1077.6,344.8,1079.7,343.7z"/>
		<rect x="1070.8" y="330.6" class="st3" width="5.6" height="13.5"/>
		<rect x="1113" y="331.8" class="st3" width="5.2" height="12.1"/>
	</g>
	<rect x="1075.2" y="335.3" width="4.6" height="2.3"/>
	<rect x="1109.1" y="333.2" width="3.8" height="3.1"/>
</g>
<g>
	<g>
		<path class="st3" d="M1157,338.1c0.4,0.7,1.5,3.5,4.6,5.2c1.9,1.1,3.5,1.2,6.9,1.5c3.1,0.3,5.8,0.5,9,0s7.1-1.2,9.5-4.1
			c0.6-0.5,2.1-2.6,2.3-5.2c0.2-4.9-5.2-8.3-4.6-8.8c0.6-0.6,4.8,2.3,4.6,2.6c-0.2,0.3-6.7-4.9-15.8-5.4c-2.1-0.2-6.7-0.2-11.2,2.3
			c-1.9,0.9-3.8,1.9-5.2,4.1C1155.1,333.8,1156.6,337.2,1157,338.1z"/>
		<path class="st3" d="M1157.8,346c3.5-2.1,6.7,2.3,13.3,2.9c8.8,0.7,13.9-5.7,17-3.1c1.5,1.4,0.4,3.3,2.7,7.6
			c1.7,3.3,3.3,3.6,3.1,4.9c-0.6,3.5-13.7,4-20.2,4.3c-9.7,0.5-20.2,0-20.2,0l0,0c0,0-2.5-1.5-2.7-3.5c-0.2-0.9,0.2-1.2,1.2-2.9
			c1.3-2.4,1.2-2.8,1.9-4.7C1154.3,350,1155.9,347.2,1157.8,346z"/>
		<rect x="1149.1" y="333" class="st3" width="5.6" height="13.5"/>
		<rect x="1191.2" y="334.3" class="st3" width="5.2" height="12.1"/>
	</g>
	<rect x="1153.4" y="337.7" width="4.6" height="2.3"/>
	<rect x="1187.4" y="335.6" width="3.8" height="3.1"/>
</g>
<g>
	<g>
		<path class="st3" d="M1078.5,70.5c0.4,0.7,1.5,3.5,4.6,5.2c1.9,1.1,3.5,1.2,6.9,1.5c3.1,0.3,5.8,0.5,9,0s7.1-1.2,9.5-4.1
			c0.6-0.5,2.1-2.6,2.3-5.2c0.2-4.9-5.2-8.3-4.6-8.8c0.6-0.5,4.8,2.3,4.6,2.6c-0.2,0.3-6.7-4.9-15.8-5.4c-2.1-0.2-6.7-0.2-11.2,2.3
			c-1.9,0.9-3.8,1.9-5.2,4.1C1076.7,66,1078.2,69.6,1078.5,70.5z"/>
		<path class="st3" d="M1079.3,78.4c3.5-2.1,6.7,2.3,13.3,2.9c8.8,0.7,13.9-5.7,17-3.1c1.5,1.4,0.4,3.3,2.7,7.6
			c1.7,3.3,3.3,3.6,3.1,4.9c-0.6,3.5-13.7,4-20.2,4.3c-9.7,0.5-20.2,0-20.2,0l0,0c0,0-2.5-1.5-2.7-3.5c-0.2-0.9,0.2-1.2,1.2-2.9
			c1.3-2.4,1.2-2.8,1.9-4.7C1076,82.4,1077.4,79.7,1079.3,78.4z"/>
		<rect x="1070.6" y="65.3" class="st3" width="5.6" height="13.5"/>
		<rect x="1112.8" y="66.5" class="st3" width="5.2" height="12.1"/>
	</g>
	<rect x="1075" y="69.9" width="4.6" height="2.3"/>
	<rect x="1109" y="68.1" width="3.8" height="3.1"/>
</g>
<g>
	<g>
		<path class="st3" d="M1156.6,72.9c0.4,0.7,1.5,3.5,4.6,5.2c1.9,1.1,3.5,1.2,6.9,1.5c3.1,0.3,5.8,0.5,9,0s7.1-1.2,9.5-4.1
			c0.6-0.5,2.1-2.6,2.3-5.2c0.2-4.9-5.2-8.3-4.6-8.8c0.6-0.5,4.8,2.3,4.6,2.6c-0.2,0.3-6.7-4.9-15.8-5.4c-2.1-0.2-6.7-0.2-11.2,2.3
			c-1.9,0.9-3.8,1.9-5.2,4.1C1154.7,68.4,1156.3,71.9,1156.6,72.9z"/>
		<path class="st3" d="M1157.4,80.9c3.5-2.1,6.7,2.3,13.3,2.9c8.8,0.7,13.9-5.7,17-3.1c1.5,1.4,0.4,3.3,2.7,7.6
			c1.7,3.3,3.3,3.6,3.1,4.9c-0.6,3.5-13.7,4-20.2,4.3c-9.7,0.5-20.2,0-20.2,0l0,0c0,0-2.5-1.5-2.7-3.5c-0.2-0.9,0.2-1.2,1.2-2.9
			c1.3-2.4,1.2-2.8,1.9-4.7C1154.1,84.9,1155.5,81.9,1157.4,80.9z"/>
		<rect x="1148.7" y="67.7" class="st3" width="5.6" height="13.5"/>
		<rect x="1190.8" y="68.9" class="st3" width="5.2" height="12.1"/>
	</g>
	<rect x="1153" y="72.4" width="4.6" height="2.3"/>
	<rect x="1187.1" y="70.3" width="3.8" height="3.1"/>
</g>
<g>
	<g>
		<path class="st3" d="M1329,71.9c0.4,0.7,1.5,3.5,4.6,5.2c1.9,1.1,3.5,1.2,6.9,1.5c3.1,0.3,5.8,0.5,9,0s7.1-1.2,9.5-4.1
			c0.6-0.5,2.1-2.6,2.3-5.2c0.2-4.9-5.2-8.3-4.6-8.8c0.6-0.5,4.8,2.3,4.6,2.6c-0.2,0.3-6.7-4.9-15.8-5.4c-2.1-0.2-6.7-0.2-11.2,2.3
			c-1.9,0.9-3.8,1.9-5.2,4.1C1327.1,67.3,1328.7,71,1329,71.9z"/>
		<path class="st3" d="M1329.8,79.8c3.5-2.1,6.7,2.3,13.3,2.9c8.8,0.7,13.9-5.7,17-3.1c1.5,1.4,0.4,3.3,2.7,7.6
			c1.7,3.3,3.3,3.6,3.1,4.9c-0.6,3.5-13.7,4-20.2,4.3c-9.7,0.5-20.2,0-20.2,0l0,0c0,0-2.5-1.5-2.7-3.5c-0.2-0.9,0.2-1.2,1.2-2.9
			c1.3-2.4,1.2-2.8,1.9-4.7C1326.6,83.8,1327.9,81,1329.8,79.8z"/>
		<rect x="1321.1" y="66.7" class="st3" width="5.6" height="13.5"/>
		<rect x="1363.2" y="67.9" class="st3" width="5.2" height="12.1"/>
	</g>
	<rect x="1325.4" y="71.3" width="4.6" height="2.3"/>
	<rect x="1359.5" y="69.3" width="3.8" height="3.1"/>
</g>
<g>
	<g>
		<path class="st3" d="M1302.8,669c0.4-0.7,1.5-3.5,4.6-5.2c1.9-1.1,3.5-1.2,6.9-1.5c3.1-0.3,5.8-0.5,9,0c3.3,0.5,7.1,1.2,9.5,4.1
			c0.6,0.5,2.1,2.6,2.3,5.2c0.2,4.9-5.2,8.3-4.6,8.8c0.6,0.5,4.8-2.3,4.6-2.6c-0.2-0.3-6.7,4.9-15.8,5.4c-2.1,0.2-6.7,0.2-11.2-2.3
			c-1.9-0.9-3.8-1.9-5.2-4.1C1300.8,673.5,1302.4,670.1,1302.8,669z"/>
		<path class="st3" d="M1303.5,661c3.5,2.1,6.7-2.3,13.3-2.9c8.8-0.7,13.9,5.7,17,3.1c1.5-1.4,0.4-3.3,2.7-7.6
			c1.7-3.3,3.3-3.6,3.1-4.9c-0.6-3.5-13.7-4-20.2-4.3c-9.7-0.5-20.2,0-20.2,0l0,0c0,0-2.5,1.5-2.7,3.5c-0.2,0.9,0.2,1.2,1.2,2.9
			c1.3,2.4,1.2,2.8,1.9,4.7C1300.1,657,1301.6,660,1303.5,661z"/>
		<rect x="1294.7" y="660.9" class="st3" width="5.6" height="13.5"/>
		<rect x="1336.7" y="660.9" class="st3" width="5.2" height="12.1"/>
	</g>
	<rect x="1299.1" y="667.3" width="4.6" height="2.3"/>
	<rect x="1333.1" y="668.3" width="3.8" height="3.1"/>
</g>
<g>
	<g>
		<path class="st3" d="M1391.7,673.5c0.4-0.7,1.5-3.5,4.6-5.2c1.9-1.1,3.5-1.2,6.9-1.5c3.1-0.3,5.8-0.5,9,0c3.3,0.5,7.1,1.2,9.5,4.1
			c0.6,0.5,2.1,2.6,2.3,5.2c0.2,4.9-5.2,8.3-4.6,8.8c0.6,0.5,4.8-2.3,4.6-2.6c-0.2-0.3-6.7,4.9-15.8,5.4c-2.1,0.2-6.7,0.2-11.2-2.3
			c-1.9-0.9-3.8-1.9-5.2-4.1C1390,678,1391.3,674.6,1391.7,673.5z"/>
		<path class="st3" d="M1392.7,665.6c3.5,2.1,6.7-2.3,13.3-2.9c8.8-0.7,13.9,5.7,17,3.1c1.5-1.4,0.4-3.3,2.7-7.6
			c1.7-3.3,3.3-3.6,3.1-4.9c-0.6-3.5-13.7-4-20.2-4.3c-9.7-0.5-20.2,0-20.2,0l0,0c0,0-2.5,1.5-2.7,3.5c-0.2,0.9,0.2,1.2,1.2,2.9
			c1.3,2.4,1.2,2.8,1.9,4.7C1389.2,661.6,1390.5,664.5,1392.7,665.6z"/>
		<rect x="1383.6" y="665.4" class="st3" width="5.6" height="13.5"/>
		<rect x="1425.9" y="665.4" class="st3" width="5.2" height="12.1"/>
	</g>
	<rect x="1388.1" y="671.8" width="4.6" height="2.3"/>
	<rect x="1422" y="672.9" width="3.8" height="3.1"/>
</g>
<g>
	<g>
		<path class="st3" d="M1481.6,673.3c0.4-0.7,1.5-3.5,4.6-5.2c1.9-1.1,3.5-1.2,6.9-1.5c3.1-0.3,5.8-0.5,9,0c3.3,0.5,7.1,1.2,9.5,4.1
			c0.6,0.5,2.1,2.6,2.3,5.2c0.2,4.9-5.2,8.3-4.6,8.8c0.6,0.5,4.8-2.3,4.6-2.6c-0.2-0.3-6.7,4.9-15.8,5.4c-2.1,0.2-6.7,0.2-11.2-2.3
			c-1.9-0.9-3.8-1.9-5.2-4.1C1479.7,677.9,1481.2,674.4,1481.6,673.3z"/>
		<path class="st3" d="M1482.4,665.4c3.5,2.1,6.7-2.3,13.3-2.9c8.8-0.7,13.9,5.7,17,3.1c1.5-1.4,0.4-3.3,2.7-7.6
			c1.7-3.3,3.3-3.6,3.1-4.9c-0.6-3.5-13.7-4-20.2-4.3c-9.7-0.5-20.2,0-20.2,0l0,0c0,0-2.5,1.5-2.7,3.5c-0.2,0.9,0.2,1.2,1.2,2.9
			c1.3,2.4,1.2,2.8,1.9,4.7C1478.9,661.4,1480.4,664.3,1482.4,665.4z"/>
		<rect x="1473.6" y="665.2" class="st3" width="5.6" height="13.5"/>
		<rect x="1515.8" y="665.2" class="st3" width="5.2" height="12.1"/>
	</g>
	<rect x="1478" y="671.6" width="4.6" height="2.3"/>
	<rect x="1511.9" y="672.7" width="3.8" height="3.1"/>
</g>
<g>
	<g>
		<path class="st3" d="M1315.5,452.3c0.4-0.7,1.5-3.5,4.6-5.2c1.9-1.1,3.5-1.2,6.9-1.5c3.1-0.3,5.8-0.5,9,0s7.1,1.2,9.5,4.1
			c0.6,0.5,2.1,2.6,2.3,5.2c0.2,4.9-5.2,8.3-4.6,8.8c0.6,0.5,4.8-2.3,4.6-2.6c-0.2-0.3-6.7,4.9-15.8,5.4c-2.1,0.2-6.7,0.2-11.2-2.3
			c-1.9-0.9-3.8-1.9-5.2-4.1C1313.6,456.6,1315.1,453.2,1315.5,452.3z"/>
		<path class="st3" d="M1316.3,444.4c3.5,2.1,6.7-2.3,13.3-2.9c8.8-0.7,13.9,5.7,17,3.1c1.5-1.4,0.4-3.3,2.7-7.6
			c1.7-3.3,3.3-3.6,3.1-4.9c-0.6-3.5-13.7-4-20.2-4.3c-9.7-0.5-20.2,0-20.2,0l0,0c0,0-2.5,1.5-2.7,3.5c-0.2,0.9,0.2,1.2,1.2,2.9
			c1.3,2.4,1.2,2.8,1.9,4.7C1312.8,440.4,1314.4,443.2,1316.3,444.4z"/>
		<rect x="1307.5" y="444" class="st3" width="5.6" height="13.5"/>
		<rect x="1349.5" y="444" class="st3" width="5.2" height="12.1"/>
	</g>
	<rect x="1311.9" y="450.4" width="4.6" height="2.3"/>
	<rect x="1345.8" y="451.6" width="3.8" height="3.1"/>
</g>
<g>
	<g>
		<path class="st3" d="M1398.2,449.9c0.4-0.7,1.5-3.5,4.6-5.2c1.9-1.1,3.5-1.2,6.9-1.5c3.1-0.3,5.8-0.5,9,0c3.3,0.5,7.1,1.2,9.5,4.1
			c0.6,0.5,2.1,2.6,2.3,5.2c0.2,4.9-5.2,8.3-4.6,8.8c0.6,0.5,4.8-2.3,4.6-2.6c-0.2-0.3-6.7,4.9-15.8,5.4c-2.1,0.2-6.7,0.2-11.2-2.3
			c-1.9-0.9-3.8-1.9-5.2-4.1C1396.3,454.4,1397.8,450.8,1398.2,449.9z"/>
		<path class="st3" d="M1398.9,441.9c3.5,2.1,6.7-2.3,13.3-2.9c8.8-0.7,13.9,5.7,17,3.1c1.5-1.4,0.4-3.3,2.7-7.6
			c1.7-3.3,3.3-3.6,3.1-4.9c-0.6-3.5-13.7-4-20.2-4.3c-9.7-0.5-20.2,0-20.2,0l0,0c0,0-2.5,1.5-2.7,3.5c-0.2,0.9,0.2,1.2,1.2,2.9
			c1.3,2.4,1.2,2.8,1.9,4.7C1395.5,438,1397.1,440.7,1398.9,441.9z"/>
		<rect x="1390.2" y="441.6" class="st3" width="5.6" height="13.5"/>
		<rect x="1432.4" y="441.6" class="st3" width="5.2" height="12.1"/>
	</g>
	<rect x="1394.6" y="448" width="4.6" height="2.3"/>
	<rect x="1428.5" y="449.2" width="3.8" height="3.1"/>
</g>
<g>
	<g>
		<path class="st3" d="M1480.8,453c0.4-0.7,1.5-3.5,4.6-5.2c1.9-1.1,3.5-1.2,6.9-1.5c3.1-0.3,5.8-0.5,9,0c3.3,0.5,7.1,1.2,9.5,4.1
			c0.6,0.5,2.1,2.6,2.3,5.2c0.2,4.9-5.2,8.3-4.6,8.8c0.6,0.5,4.8-2.3,4.6-2.6c-0.2-0.3-6.7,4.9-15.8,5.4c-2.1,0.2-6.7,0.2-11.2-2.3
			c-1.9-0.9-3.8-1.9-5.2-4.1C1478.9,457.5,1480.4,453.9,1480.8,453z"/>
		<path class="st3" d="M1481.6,445c3.5,2.1,6.7-2.3,13.3-2.9c8.8-0.7,13.9,5.7,17,3.1c1.5-1.4,0.4-3.3,2.7-7.6
			c1.7-3.3,3.3-3.6,3.1-4.9c-0.6-3.5-13.7-4-20.2-4.3c-9.7-0.5-20.2,0-20.2,0l0,0c0,0-2.5,1.5-2.7,3.5c-0.2,0.9,0.2,1.2,1.2,2.9
			c1.3,2.4,1.2,2.8,1.9,4.7C1478.3,441,1479.7,443.8,1481.6,445z"/>
		<rect x="1472.9" y="444.7" class="st3" width="5.6" height="13.5"/>
		<rect x="1515" y="444.7" class="st3" width="5.2" height="12.1"/>
	</g>
	<rect x="1477.2" y="451.1" width="4.6" height="2.3"/>
	<rect x="1511.2" y="452.3" width="3.8" height="3.1"/>
</g>
<g>
	<g>
		<path class="st3" d="M1310.1,222.3c0.4-0.7,1.5-3.5,4.6-5.2c1.9-1.1,3.5-1.2,6.9-1.5c3.1-0.3,5.8-0.5,9,0c3.3,0.5,7.1,1.2,9.5,4.1
			c0.6,0.5,2.1,2.6,2.3,5.2c0.2,4.9-5.2,8.3-4.6,8.8c0.6,0.5,4.8-2.3,4.6-2.6c-0.2-0.3-6.7,4.9-15.8,5.4c-2.1,0.2-6.7,0.2-11.2-2.3
			c-1.9-0.9-3.8-1.9-5.2-4.1C1308.4,226.7,1309.8,223.3,1310.1,222.3z"/>
		<path class="st3" d="M1311.1,214.3c3.5,2.1,6.7-2.3,13.3-2.9c8.8-0.7,13.9,5.7,17,3.1c1.5-1.4,0.4-3.3,2.7-7.6
			c1.7-3.3,3.3-3.6,3.1-4.9c-0.6-3.5-13.7-4-20.2-4.3c-9.7-0.5-20.2,0-20.2,0l0,0c0,0-2.5,1.5-2.7,3.5c-0.2,0.9,0.2,1.2,1.2,2.9
			c1.3,2.4,1.2,2.8,1.9,4.7C1307.7,210.4,1309,213.3,1311.1,214.3z"/>
		<rect x="1302.2" y="214.2" class="st3" width="5.6" height="13.5"/>
		<rect x="1344.3" y="214.2" class="st3" width="5.2" height="12.1"/>
	</g>
	<rect x="1306.7" y="220.5" width="4.6" height="2.3"/>
	<rect x="1340.8" y="221.7" width="3.8" height="3.1"/>
</g>
<g>
	<g>
		<path class="st3" d="M1483.3,226.6c0.4-0.7,1.5-3.5,4.6-5.2c1.9-1.1,3.5-1.2,6.9-1.5c3.1-0.3,5.8-0.5,9,0c3.3,0.5,7.1,1.2,9.5,4.1
			c0.6,0.5,2.1,2.6,2.3,5.2c0.2,4.9-5.2,8.3-4.6,8.8c0.6,0.5,4.8-2.3,4.6-2.6c-0.2-0.3-6.7,4.9-15.8,5.4c-2.1,0.2-6.7,0.2-11.2-2.3
			c-1.9-0.9-3.8-1.9-5.2-4.1C1481.6,231.1,1482.9,227.5,1483.3,226.6z"/>
		<path class="st3" d="M1484.3,218.6c3.5,2.1,6.7-2.3,13.3-2.9c8.8-0.7,13.9,5.7,17,3.1c1.5-1.4,0.4-3.3,2.7-7.6
			c1.7-3.3,3.3-3.6,3.1-4.9c-0.6-3.5-13.7-4-20.2-4.3c-9.7-0.5-20.2,0-20.2,0l0,0c0,0-2.5,1.5-2.7,3.5c-0.2,0.9,0.2,1.2,1.2,2.9
			c1.3,2.4,1.2,2.8,1.9,4.7C1480.8,214.7,1482.2,217.4,1484.3,218.6z"/>
		<rect x="1475.3" y="218.3" class="st3" width="5.6" height="13.5"/>
		<rect x="1517.5" y="218.3" class="st3" width="5.2" height="12.1"/>
	</g>
	<rect x="1479.9" y="224.7" width="4.6" height="2.3"/>
	<rect x="1513.6" y="225.9" width="3.8" height="3.1"/>
</g>
<g>
	<g>
		<path class="st3" d="M1064.2,469.3c0.4-0.7,1.5-3.5,4.6-5.2c1.9-1.1,3.5-1.2,6.9-1.5c3.1-0.3,5.8-0.5,9,0c3.3,0.5,7.1,1.2,9.5,4.1
			c0.6,0.5,2.1,2.6,2.3,5.2c0.2,4.9-5.2,8.3-4.6,8.8c0.6,0.6,4.8-2.3,4.6-2.6c-0.2-0.3-6.7,4.9-15.8,5.4c-2.1,0.2-6.7,0.2-11.2-2.3
			c-1.9-0.9-3.8-1.9-5.2-4.1C1062.3,473.8,1063.9,470.2,1064.2,469.3z"/>
		<path class="st3" d="M1065,461.3c3.5,2.1,6.7-2.3,13.3-2.9c8.8-0.7,13.9,5.7,17,3.1c1.5-1.4,0.4-3.3,2.7-7.6
			c1.7-3.3,3.3-3.6,3.1-4.9c-0.6-3.5-13.7-4-20.2-4.3c-9.7-0.5-20.2,0-20.2,0l0,0c0,0-2.5,1.5-2.7,3.5c-0.2,0.9,0.2,1.2,1.2,2.9
			c1.3,2.4,1.2,2.8,1.9,4.7C1061.8,457.3,1063.1,460.1,1065,461.3z"/>
		<rect x="1056.3" y="461" class="st3" width="5.6" height="13.5"/>
		<rect x="1098.4" y="461" class="st3" width="5.2" height="12.1"/>
	</g>
	<rect x="1060.6" y="467.4" width="4.6" height="2.3"/>
	<rect x="1094.7" y="468.6" width="3.8" height="3.1"/>
</g>
<g>
	<g>
		<path class="st3" d="M1142.3,466.8c0.4-0.7,1.5-3.5,4.6-5.2c1.9-1.1,3.5-1.2,6.9-1.5c3.1-0.3,5.8-0.5,9,0c3.3,0.5,7.1,1.2,9.5,4.1
			c0.6,0.5,2.1,2.6,2.3,5.2c0.2,4.9-5.2,8.3-4.6,8.8c0.6,0.5,4.8-2.3,4.6-2.6s-6.7,4.9-15.8,5.4c-2.1,0.2-6.7,0.2-11.2-2.3
			c-1.9-0.9-3.8-1.9-5.2-4.1C1140.6,471.4,1142,467.7,1142.3,466.8z"/>
		<path class="st3" d="M1143.3,458.9c3.5,2.1,6.7-2.3,13.3-2.9c8.8-0.7,13.9,5.7,17,3.1c1.5-1.4,0.4-3.3,2.7-7.6
			c1.7-3.3,3.3-3.6,3.1-4.9c-0.6-3.5-13.7-4-20.2-4.3c-9.7-0.5-20.2,0-20.2,0l0,0c0,0-2.5,1.5-2.7,3.5c-0.2,0.9,0.2,1.2,1.2,2.9
			c1.3,2.4,1.2,2.8,1.9,4.7C1139.8,454.9,1141.2,457.7,1143.3,458.9z"/>
		<rect x="1134.3" y="458.6" class="st3" width="5.6" height="13.5"/>
		<rect x="1176.5" y="458.6" class="st3" width="5.2" height="12.1"/>
	</g>
	<rect x="1138.9" y="465.1" width="4.6" height="2.3"/>
	<rect x="1172.7" y="466.2" width="3.8" height="3.1"/>
</g>
<g>
	<g>
		<path class="st3" d="M1072.9,224c0.4-0.7,1.5-3.5,4.6-5.2c1.9-1.1,3.5-1.2,6.9-1.5c3.1-0.3,5.8-0.5,9,0c3.3,0.5,7.1,1.2,9.5,4.1
			c0.6,0.5,2.1,2.6,2.3,5.2c0.2,4.9-5.2,8.3-4.6,8.8c0.6,0.6,4.8-2.3,4.6-2.6c-0.2-0.3-6.7,4.9-15.8,5.4c-2.1,0.2-6.7,0.2-11.2-2.3
			c-1.9-0.9-3.8-1.9-5.2-4.1C1071,228.5,1072.5,224.9,1072.9,224z"/>
		<path class="st3" d="M1073.6,216c3.5,2.1,6.7-2.3,13.3-2.9c8.8-0.7,13.9,5.7,17,3.1c1.5-1.4,0.4-3.3,2.7-7.6
			c1.7-3.3,3.3-3.6,3.1-4.9c-0.6-3.5-13.7-4-20.2-4.3c-9.7-0.5-20.2,0-20.2,0l0,0c0,0-2.5,1.5-2.7,3.5c-0.2,0.9,0.2,1.2,1.2,2.9
			c1.3,2.4,1.2,2.8,1.9,4.7C1070.4,212.1,1071.7,214.8,1073.6,216z"/>
		<rect x="1064.8" y="215.7" class="st3" width="5.6" height="13.5"/>
		<rect x="1107" y="215.7" class="st3" width="5.2" height="12.1"/>
	</g>
	<rect x="1069.2" y="222.3" width="4.6" height="2.3"/>
	<rect x="1103.2" y="223.3" width="3.8" height="3.1"/>
</g>
<g>
	<g>
		<path class="st3" d="M1151,221.6c0.4-0.7,1.5-3.5,4.6-5.2c1.9-1.1,3.5-1.2,6.9-1.5c3.1-0.3,5.8-0.5,9,0c3.3,0.5,7.1,1.2,9.5,4.1
			c0.6,0.5,2.1,2.6,2.3,5.2c0.2,4.9-5.2,8.3-4.6,8.8c0.6,0.5,4.8-2.3,4.6-2.6c-0.2-0.3-6.7,4.9-15.8,5.4c-2.1,0.2-6.7,0.2-11.2-2.3
			c-1.9-0.9-3.8-1.9-5.2-4.1C1149.1,226.1,1150.6,222.6,1151,221.6z"/>
		<path class="st3" d="M1151.7,213.6c3.5,2.1,6.7-2.3,13.3-2.9c8.8-0.7,13.9,5.7,17,3.1c1.5-1.4,0.4-3.3,2.7-7.6
			c1.7-3.3,3.3-3.6,3.1-4.9c-0.6-3.5-13.7-4-20.2-4.3c-9.7-0.5-20.2,0-20.2,0l0,0c0,0-2.5,1.5-2.7,3.5c-0.2,0.9,0.2,1.2,1.2,2.9
			c1.3,2.4,1.2,2.8,1.9,4.7C1148.5,209.6,1149.8,212.6,1151.7,213.6z"/>
		<rect x="1142.9" y="213.4" class="st3" width="5.6" height="13.5"/>
		<rect x="1185.1" y="213.4" class="st3" width="5.2" height="12.1"/>
	</g>
	<rect x="1147.3" y="219.9" width="4.6" height="2.3"/>
	<rect x="1181.3" y="220.9" width="3.8" height="3.1"/>
</g>
<g>
	<g>
		<path class="st3" d="M1486.4,70.7c0.4,0.7,1.5,3.5,4.6,5.2c1.9,1.1,3.5,1.2,6.9,1.5c3.1,0.3,5.8,0.5,9,0c3.3-0.5,7.1-1.2,9.5-4.1
			c0.6-0.5,2.1-2.6,2.3-5.2c0.2-4.9-5.2-8.3-4.6-8.8c0.6-0.6,4.8,2.3,4.6,2.6c-0.2,0.3-6.7-4.9-15.8-5.4c-2.1-0.2-6.7-0.2-11.2,2.3
			c-1.9,0.9-3.8,1.9-5.2,4.1C1484.7,66.1,1486,69.6,1486.4,70.7z"/>
		<path class="st3" d="M1487.2,78.6c3.5-2.1,6.7,2.3,13.3,2.9c8.8,0.7,13.9-5.7,17-3.1c1.5,1.4,0.4,3.3,2.7,7.6
			c1.7,3.3,3.3,3.6,3.1,4.9c-0.6,3.5-13.7,4-20.2,4.3c-9.7,0.5-20.2,0-20.2,0l0,0c0,0-2.5-1.5-2.7-3.5c-0.2-0.9,0.2-1.2,1.2-2.9
			c1.3-2.4,1.2-2.8,1.9-4.7C1483.9,82.6,1485.2,79.7,1487.2,78.6z"/>
		<rect x="1478.3" y="65.5" class="st3" width="5.6" height="13.5"/>
		<rect x="1520.5" y="66.7" class="st3" width="5.2" height="12.1"/>
	</g>
	<rect x="1482.7" y="70.1" width="4.6" height="2.3"/>
	<rect x="1516.7" y="68.1" width="3.8" height="3.1"/>
</g>
<g>
	<g>
		<path class="st3" d="M1310.3,895.9c0.4-0.7,1.5-3.5,4.6-5.2c1.9-1.1,3.5-1.2,6.9-1.5c3.1-0.3,5.8-0.5,9,0s7.1,1.2,9.5,4.1
			c0.6,0.5,2.1,2.6,2.3,5.2c0.2,4.9-5.2,8.3-4.6,8.8c0.6,0.5,4.8-2.3,4.6-2.6c-0.2-0.3-6.7,4.9-15.8,5.4c-2.1,0.2-6.7,0.2-11.2-2.3
			c-1.9-0.9-3.8-1.9-5.2-4.1C1308.6,900.4,1310,896.7,1310.3,895.9z"/>
		<path class="st3" d="M1311.3,887.9c3.5,2.1,6.7-2.3,13.3-2.9c8.8-0.7,13.9,5.7,17,3.1c1.5-1.4,0.4-3.3,2.7-7.6
			c1.7-3.3,3.3-3.6,3.1-4.9c-0.6-3.5-13.7-4-20.2-4.3c-9.7-0.5-20.2,0-20.2,0l0,0c0,0-2.5,1.5-2.7,3.5c-0.2,0.9,0.2,1.2,1.2,2.9
			c1.3,2.4,1.2,2.8,1.9,4.7C1307.8,883.9,1309.2,886.7,1311.3,887.9z"/>
		<rect x="1302.4" y="887.7" class="st3" width="5.6" height="13.5"/>
		<rect x="1344.5" y="887.7" class="st3" width="5.2" height="12.1"/>
	</g>
	<rect x="1306.9" y="894.1" width="4.6" height="2.3"/>
	<rect x="1340.8" y="895.2" width="3.8" height="3.1"/>
</g>
<g>
	<g>
		<path class="st3" d="M1485.4,894.5c0.4-0.7,1.5-3.5,4.6-5.2c1.9-1.1,3.5-1.2,6.9-1.5c3.1-0.3,5.8-0.5,9,0s7.1,1.2,9.5,4.1
			c0.6,0.5,2.1,2.6,2.3,5.2c0.2,4.9-5.2,8.3-4.6,8.8c0.6,0.6,4.8-2.3,4.6-2.6c-0.2-0.3-6.7,4.9-15.8,5.4c-2.1,0.2-6.7,0.2-11.2-2.3
			c-1.9-0.9-3.8-1.9-5.2-4.1C1483.7,899,1485.1,895.5,1485.4,894.5z"/>
		<path class="st3" d="M1486.4,886.5c3.5,2.1,6.7-2.3,13.3-2.9c8.8-0.7,13.9,5.7,17,3.1c1.5-1.4,0.4-3.3,2.7-7.6
			c1.7-3.3,3.3-3.6,3.1-4.9c-0.6-3.5-13.7-4-20.2-4.3c-9.7-0.5-20.2,0-20.2,0l0,0c0,0-2.5,1.5-2.7,3.5c-0.2,0.9,0.2,1.2,1.2,2.9
			c1.3,2.4,1.2,2.8,1.9,4.7C1482.9,882.5,1484.3,885.5,1486.4,886.5z"/>
		<rect x="1477.4" y="886.3" class="st3" width="5.6" height="13.5"/>
		<rect x="1519.6" y="886.3" class="st3" width="5.2" height="12.1"/>
	</g>
	<rect x="1481.8" y="892.7" width="4.6" height="2.3"/>
	<rect x="1515.8" y="893.8" width="3.8" height="3.1"/>
</g>
<g>
	<g>
		<path class="st19" d="M781.3,857.4c0.4,0.7,1.7,3.1,5,4.7c1.9,0.9,3.8,1.1,7.5,1.4c3.5,0.3,6.1,0.5,9.9,0
			c3.6-0.5,7.7-1.1,10.5-3.8c0.6-0.5,2.5-2.3,2.5-4.7c0.2-4.5-5.6-7.5-5-7.9c0.6-0.5,5.2,2.1,5,2.4c-0.2,0.3-7.3-4.3-17.4-4.9
			c-2.3-0.2-7.3-0.2-12.4,1.9c-2.1,0.9-4.2,1.7-5.6,3.8C779.2,853.4,780.9,856.5,781.3,857.4z"/>
		<path class="st19" d="M782.3,864.5c3.8-1.9,7.3,2.1,14.5,2.6c9.5,0.7,15.3-5.2,18.7-2.9c1.7,1.2,0.4,2.9,3.1,6.9
			c1.9,2.9,3.6,3.3,3.5,4.3c-0.6,3.1-15.1,3.6-22.4,3.8c-10.6,0.3-22.4,0-22.4,0l0,0c0,0-2.7-1.4-3.1-3.1c-0.2-0.7,0.4-1.1,1.3-2.6
			c1.3-2.3,1.2-2.6,2.1-4.1C778.4,868.1,780,865.5,782.3,864.5z"/>
		<rect x="772.6" y="852.7" class="st19" width="6.1" height="12.1"/>
		<rect x="818.7" y="853.7" class="st19" width="5.8" height="10.9"/>
	</g>
	<rect x="777.3" y="856.8" class="st19" width="5" height="2.1"/>
	<rect x="814.5" y="855.1" class="st19" width="4.2" height="2.8"/>
</g>
<g>
	<path class="st2" d="M88.7,370.3c-0.2-0.2-6.3,0.2-11.2,3.1c-6.7,4.1-6.1,10.1-6.1,11.3c0,1.1,0.4,3.1,2.1,5.7
		c1,1.4,2.3,3.3,5.4,4.9c2.1,1.2,4.2,1.5,5.4,1.9c1.5,0.3,4.4,1.1,5.4,0.3c0.6-0.5-0.2-1.1,0.6-1.9c0.6-0.7,1.3-0.9,1.3-1.5
		c0-0.2,0-0.5-0.6-0.9c-0.4-0.2-0.8,0-1.7,0c-0.6,0-1.2-0.2-2.1-0.3c-0.6-0.2-1.2-0.2-1.9-0.5c-0.4-0.2-0.4-0.2-1.2-0.5
		c-0.6-0.3-0.8-0.3-1.2-0.5c-0.4-0.2-0.6-0.3-0.8-0.5c-0.4-0.3-0.6-0.7-1-1.1c-0.6-0.9-0.8-0.7-1.3-1.4c-0.6-0.7-0.8-1.2-0.8-1.4
		c0-0.2-0.2-0.5-0.2-0.9c0-0.7,0.4-1.4,0.4-1.4v0.3c0,0-0.2-0.5,0-1.2c0-0.5,0.2-0.5,0.2-1.2c0-0.3,0-0.3,0-1.1c0-0.5,0-0.9,0-1.1
		c0.2-0.5,0.2-0.5,0.4-1.1c0.2-0.7,0-0.9,0.4-1.2c0.4-0.3,0.6-0.2,1-0.5c0.4-0.3,0.4-0.5,0.8-0.9c0.4-0.2,0.4-0.2,1-0.3
		s0.6-0.3,1-0.5c0.4-0.2,0.6-0.2,1-0.2c1.3-0.3,2.3-0.9,2.1-0.9l-1,0.3c0,0,0.8-0.3,1.7-0.5c1.2-0.2,2.3-0.2,2.3-0.2s-0.6,0.2-0.8,0
		c-0.2-0.2,1.2-0.5,1.2-0.9c-0.2-0.3-1-0.2-1.5-0.5c-0.6-0.5,0-1.4-0.2-1.4c-0.2,0-0.4,0.3-0.4,0.3s0,0,0.6-1.2
		C89.1,371,88.7,370.3,88.7,370.3z"/>
	<path class="st2" d="M78.9,384.6"/>
	<path class="st2" d="M94,374.6c-0.2,0-0.6,0-1,0c-5.8,0-12.6,4.3-12.8,9c-0.2,4.5,5.4,9.5,12.6,9.5c7.1,0,12-5,12.2-9.2
		C104.9,379.4,99.5,375,94,374.6z"/>
	<path class="st2" d="M89.3,372.7c-0.4-1.1-0.2-1.7,0.2-1.9c0.8-0.3,2.9,1.1,6.5,4.3"/>
	<path class="st2" d="M90.2,395c-0.4,1.1-0.2,1.7,0.2,1.9c0.8,0.3,2.9-1.1,6.5-4.3"/>
</g>
<g>
	<path class="st2" d="M89.7,401.6c-0.2-0.2-6.3,0.2-11.2,3.1c-6.7,4.1-6.1,10.1-6.1,11.3c0,1.1,0.4,3.1,2.1,5.7
		c1,1.4,2.3,3.3,5.4,4.9c2.1,1.2,4.2,1.5,5.4,1.9c1.5,0.3,4.4,1.1,5.4,0.3c0.6-0.5-0.2-1.1,0.6-1.9c0.6-0.7,1.3-0.9,1.3-1.5
		c0-0.2,0-0.5-0.6-0.9c-0.4-0.2-0.8,0-1.7,0c-0.6,0-1.2-0.2-2.1-0.3c-0.6-0.2-1.2-0.2-1.9-0.5c-0.4-0.2-0.4-0.2-1.2-0.5
		c-0.6-0.3-0.8-0.3-1.2-0.5c-0.4-0.2-0.6-0.3-0.8-0.5c-0.4-0.3-0.6-0.7-1-1.1c-0.6-0.9-0.8-0.7-1.3-1.4c-0.6-0.6-0.8-1.2-0.8-1.4
		s-0.2-0.5-0.2-0.9c0-0.7,0.4-1.4,0.4-1.4v0.3c0,0-0.2-0.5,0-1.2c0-0.5,0.2-0.5,0.2-1.2c0-0.3,0-0.3,0-1.1c0-0.5,0-0.9,0-1.1
		c0.2-0.5,0.2-0.5,0.4-1.1c0.2-0.7,0-0.9,0.4-1.2c0.4-0.3,0.6-0.2,1-0.5c0.4-0.3,0.4-0.5,0.8-0.9c0.4-0.2,0.4-0.2,1-0.3
		c0.6-0.2,0.6-0.3,1-0.5c0.4-0.2,0.6-0.2,1-0.2c1.3-0.3,2.3-0.9,2.1-0.9l-1,0.3c0,0,0.8-0.3,1.7-0.5c1.2-0.2,2.3-0.2,2.3-0.2
		s-0.6,0.2-0.8,0c-0.2-0.2,1.2-0.5,1.2-0.9c-0.2-0.3-1-0.2-1.5-0.5c-0.6-0.5,0-1.4-0.2-1.4c-0.2,0-0.4,0.3-0.4,0.3s0,0,0.6-1.2
		C90,402.3,89.9,401.6,89.7,401.6z"/>
	<path class="st2" d="M79.9,415.8"/>
	<path class="st2" d="M94.9,405.9c-0.2,0-0.6,0-1,0c-5.8,0-12.6,4.3-12.8,9c-0.2,4.5,5.4,9.5,12.6,9.5c7.1,0,12-5,12.2-9.2
		C106.1,410.8,100.7,406.3,94.9,405.9z"/>
	<path class="st2" d="M90.4,404c-0.4-1.1-0.2-1.7,0.2-1.9c0.8-0.3,2.9,1.1,6.5,4.3"/>
	<path class="st2" d="M91.2,426.4c-0.4,1.1-0.2,1.7,0.2,1.9c0.8,0.3,2.9-1.1,6.5-4.3"/>
</g>
<g>
	<path class="st2" d="M89.5,431.6c-0.2-0.2-6.3,0.2-11.2,3.1c-6.7,4.1-6.1,10.1-6.1,11.3c0,1.1,0.4,3.1,2.1,5.7
		c1,1.4,2.3,3.3,5.4,4.9c2.1,1.2,4.2,1.5,5.4,1.9c1.5,0.3,4.4,1.1,5.4,0.3c0.6-0.5-0.2-1.1,0.6-1.9c0.6-0.7,1.3-0.9,1.3-1.5
		c0-0.2,0-0.5-0.6-0.9c-0.4-0.2-0.8,0-1.7,0c-0.6,0-1.2-0.2-2.1-0.3c-0.6-0.2-1.2-0.2-1.9-0.5c-0.4-0.2-0.4-0.2-1.2-0.5
		c-0.6-0.3-0.8-0.3-1.2-0.5c-0.4-0.2-0.6-0.3-0.8-0.5c-0.4-0.3-0.6-0.7-1-1.1c-0.6-0.9-0.8-0.7-1.3-1.4c-0.6-0.7-0.8-1.2-0.8-1.4
		s-0.2-0.5-0.2-0.9c0-0.7,0.4-1.4,0.4-1.4v0.3c0,0-0.2-0.5,0-1.2c0-0.5,0.2-0.5,0.2-1.2c0-0.3,0-0.3,0-1.1c0-0.5,0-0.9,0-1.1
		c0.2-0.5,0.2-0.5,0.4-1.1c0.2-0.7,0-0.9,0.4-1.2c0.4-0.3,0.6-0.2,1-0.5c0.4-0.3,0.4-0.5,0.8-0.9c0.4-0.2,0.4-0.2,1-0.3
		s0.6-0.3,1-0.5c0.4-0.2,0.6-0.2,1-0.2c1.3-0.3,2.3-0.9,2.1-0.9l-1,0.3c0,0,0.8-0.3,1.7-0.5c1.2-0.2,2.3-0.2,2.3-0.2s-0.6,0.2-0.8,0
		c-0.2-0.2,1.2-0.5,1.2-0.9c-0.2-0.3-1-0.2-1.5-0.5c-0.6-0.5,0-1.4-0.2-1.4c-0.2,0-0.4,0.3-0.4,0.3s0,0,0.6-1.2
		C89.9,432.2,89.7,431.7,89.5,431.6z"/>
	<path class="st2" d="M79.7,445.9"/>
	<path class="st2" d="M94.7,435.9c-0.2,0-0.6,0-1,0c-5.8,0-12.6,4.3-12.8,9c-0.2,4.5,5.4,9.5,12.6,9.5c7.1,0,12-5,12.2-9.2
		C105.9,440.9,100.5,436.2,94.7,435.9z"/>
	<path class="st2" d="M90.2,434c-0.4-1.1-0.2-1.7,0.2-1.9c0.8-0.3,2.9,1.1,6.5,4.3"/>
	<path class="st2" d="M91,456.3c-0.4,1.1-0.2,1.7,0.2,1.9c0.8,0.3,2.9-1.1,6.5-4.3"/>
</g>
<g>
	<path class="st2" d="M90.6,462.9c-0.2-0.2-6.3,0.2-11.2,3.1c-6.7,4.1-6.1,10.1-6.1,11.3c0,1.1,0.4,3.1,2.1,5.7
		c1,1.4,2.3,3.3,5.4,4.9c2.1,1.2,4.2,1.5,5.4,1.9c1.5,0.3,4.4,1.1,5.4,0.3c0.6-0.5-0.2-1.1,0.6-1.9c0.6-0.7,1.3-0.9,1.3-1.5
		c0-0.2,0-0.5-0.6-0.9c-0.4-0.2-0.8,0-1.7,0c-0.6,0-1.2-0.2-2.1-0.3c-0.6-0.2-1.2-0.2-1.9-0.5c-0.4-0.2-0.4-0.2-1.2-0.5
		c-0.6-0.3-0.8-0.3-1.2-0.5c-0.4-0.2-0.6-0.3-0.8-0.5c-0.4-0.3-0.6-0.7-1-1.1c-0.6-0.9-0.8-0.7-1.3-1.4c-0.6-0.7-0.8-1.2-0.8-1.4
		s-0.2-0.5-0.2-0.9c0-0.7,0.4-1.4,0.4-1.4v0.3c0,0-0.2-0.5,0-1.2c0-0.5,0.2-0.5,0.2-1.2c0-0.3,0-0.3,0-1.1c0-0.5,0-0.9,0-1.1
		c0.2-0.5,0.2-0.5,0.4-1.1c0.2-0.7,0-0.9,0.4-1.2c0.4-0.3,0.6-0.2,1-0.5c0.4-0.3,0.4-0.5,0.8-0.9c0.4-0.2,0.4-0.2,1-0.3
		c0.6-0.2,0.6-0.3,1-0.5c0.4-0.2,0.6-0.2,1-0.2c1.3-0.3,2.3-0.9,2.1-0.9l-1,0.3c0,0,0.8-0.3,1.7-0.5c1.2-0.2,2.3-0.2,2.3-0.2
		s-0.6,0.2-0.8,0c-0.2-0.2,1.2-0.5,1.2-0.9c-0.2-0.3-1-0.2-1.5-0.5c-0.6-0.5,0-1.4-0.2-1.4c-0.2,0-0.4,0.3-0.4,0.3s0,0,0.6-1.2
		C91,463.6,90.6,463,90.6,462.9z"/>
	<path class="st2" d="M80.8,477.2"/>
	<path class="st2" d="M95.9,467.2c-0.2,0-0.6,0-1,0c-5.8,0-12.6,4.3-12.8,9c-0.2,4.5,5.4,9.5,12.6,9.5c7.1,0,12-5,12.2-9.2
		C106.8,472.2,101.5,467.6,95.9,467.2z"/>
	<path class="st2" d="M91.2,465.3c-0.4-1.1-0.2-1.7,0.2-1.9c0.8-0.3,2.9,1.1,6.5,4.3"/>
	<path class="st2" d="M92.2,487.6c-0.4,1.1-0.2,1.7,0.2,1.9c0.8,0.3,2.9-1.1,6.5-4.3"/>
</g>
<g>
	<path class="st2" d="M177.3,374.6c0.2-0.2,6.3,0.2,11.2,3.1c6.7,4.1,6.1,10.1,6.1,11.3c0,1.1-0.4,3.1-2.1,5.7
		c-1,1.4-2.3,3.3-5.4,4.9c-2.1,1.2-4.2,1.5-5.4,1.9c-1.5,0.3-4.4,1.1-5.4,0.3c-0.6-0.5,0.2-1.1-0.6-1.9c-0.6-0.7-1.3-0.9-1.3-1.5
		c0-0.2,0-0.5,0.6-0.9c0.4-0.2,0.8,0,1.7,0c0.6,0,1.2-0.2,2.1-0.3c0.6-0.2,1.2-0.2,1.9-0.5c0.4-0.2,0.4-0.2,1.2-0.5
		c0.6-0.3,0.8-0.3,1.2-0.5c0.4-0.2,0.6-0.3,0.8-0.5c0.4-0.3,0.6-0.7,1-1.1c0.6-0.9,0.8-0.7,1.3-1.4c0.6-0.7,0.8-1.2,0.8-1.4
		s0.2-0.5,0.2-0.9c0-0.7-0.4-1.4-0.4-1.4v0.3c0,0,0.2-0.5,0-1.2c0-0.5-0.2-0.5-0.2-1.2c0-0.3,0-0.3,0-1.1c0-0.5,0-0.9,0-1.1
		c-0.2-0.5-0.2-0.5-0.4-1.1c-0.2-0.7,0-0.9-0.4-1.2c-0.4-0.3-0.6-0.2-1-0.5c-0.4-0.3-0.4-0.5-0.8-0.9c-0.4-0.2-0.4-0.2-1-0.3
		c-0.6-0.2-0.6-0.3-1-0.5c-0.4-0.2-0.6-0.2-1-0.2c-1.3-0.3-2.3-0.9-2.1-0.9l1,0.3c0,0-0.8-0.3-1.7-0.5c-1.2-0.2-2.3-0.2-2.3-0.2
		s0.6,0.2,0.8,0c0.2-0.2-1.2-0.5-1.2-0.9c0.2-0.3,1-0.2,1.5-0.5c0.6-0.5,0-1.4,0.2-1.4c0.2,0,0.4,0.3,0.4,0.3s0,0-0.6-1.2
		C176.9,375.1,177.1,374.6,177.3,374.6z"/>
	<path class="st2" d="M187,388.7"/>
	<path class="st2" d="M171.9,378.9c0.2,0,0.6,0,1,0c5.8,0,12.6,4.3,12.8,9c0.2,4.5-5.4,9.5-12.6,9.5c-7.1,0-12-5-12.2-9.2
		C160.9,383.8,166.2,379.3,171.9,378.9z"/>
	<path class="st2" d="M176.5,377c0.4-1.1,0.2-1.7-0.2-1.9c-0.8-0.3-2.9,1.1-6.5,4.3"/>
	<path class="st2" d="M175.7,399.4c0.4,1.1,0.2,1.7-0.2,1.9c-0.8,0.3-2.9-1.1-6.5-4.3"/>
</g>
<g>
	<path class="st2" d="M176.3,405.8c0.2-0.2,6.3,0.2,11.2,3.1c6.7,4.1,6.1,10.1,6.1,11.3c0,1.1-0.4,3.1-2.1,5.7
		c-1,1.4-2.3,3.3-5.4,4.9c-2.1,1.2-4.2,1.5-5.4,1.9c-1.5,0.3-4.4,1.1-5.4,0.3c-0.6-0.5,0.2-1.1-0.6-1.9c-0.6-0.7-1.3-0.9-1.3-1.5
		c0-0.2,0-0.5,0.6-0.9c0.4-0.2,0.8,0,1.7,0c0.6,0,1.2-0.2,2.1-0.3c0.6-0.2,1.2-0.2,1.9-0.5c0.4-0.2,0.4-0.2,1.2-0.5
		c0.6-0.3,0.8-0.3,1.2-0.5c0.4-0.2,0.6-0.3,0.8-0.5c0.4-0.3,0.6-0.7,1-1.1c0.6-0.9,0.8-0.7,1.3-1.4c0.6-0.7,0.8-1.2,0.8-1.4
		c0-0.2,0.2-0.5,0.2-0.9c0-0.7-0.4-1.4-0.4-1.4v0.3c0,0,0.2-0.5,0-1.2c0-0.5-0.2-0.5-0.2-1.2c0-0.3,0-0.3,0-1.1c0-0.5,0-0.9,0-1.1
		c-0.2-0.5-0.2-0.5-0.4-1.1c-0.2-0.7,0-0.9-0.4-1.2c-0.4-0.3-0.6-0.2-1-0.5c-0.4-0.3-0.4-0.5-0.8-0.9c-0.4-0.2-0.4-0.2-1-0.3
		c-0.6-0.2-0.6-0.3-1-0.5c-0.4-0.2-0.6-0.2-1-0.2c-1.3-0.3-2.3-0.9-2.1-0.9l1,0.3c0,0-0.8-0.3-1.7-0.5c-1.2-0.2-2.3-0.2-2.3-0.2
		s0.6,0.2,0.8,0c0.2-0.2-1.2-0.5-1.2-0.9c0.2-0.3,1-0.2,1.5-0.5c0.6-0.5,0-1.4,0.2-1.4c0.2,0,0.4,0.3,0.4,0.3s0,0-0.6-1.2
		C175.7,406.4,176.1,405.9,176.3,405.8z"/>
	<path class="st2" d="M185.9,420.1"/>
	<path class="st2" d="M170.9,410.2c0.2,0,0.6,0,1,0c5.8,0,12.6,4.3,12.8,9c0.2,4.5-5.4,9.5-12.6,9.5c-7.1,0-12-5-12.2-9.2
		C159.9,415.1,165.3,410.6,170.9,410.2z"/>
	<path class="st2" d="M175.5,408.4c0.4-1.1,0.2-1.7-0.2-1.9c-0.8-0.3-2.9,1.1-6.5,4.3"/>
	<path class="st2" d="M174.6,430.7c0.4,1.1,0.2,1.7-0.2,1.9c-0.8,0.3-2.9-1.1-6.5-4.3"/>
</g>
<g>
	<path class="st2" d="M176.3,435.9c0.2-0.2,6.3,0.2,11.2,3.1c6.7,4.1,6.1,10.1,6.1,11.3c0,1.1-0.4,3.1-2.1,5.7
		c-1,1.4-2.3,3.3-5.4,4.9c-2.1,1.2-4.2,1.5-5.4,1.9c-1.5,0.3-4.4,1.1-5.4,0.3c-0.6-0.5,0.2-1.1-0.6-1.9c-0.6-0.7-1.3-0.9-1.3-1.5
		c0-0.2,0-0.5,0.6-0.9c0.4-0.2,0.8,0,1.7,0c0.6,0,1.2-0.2,2.1-0.3c0.6-0.2,1.2-0.2,1.9-0.5c0.4-0.2,0.4-0.2,1.2-0.5
		c0.6-0.3,0.8-0.3,1.2-0.5c0.4-0.2,0.6-0.3,0.8-0.5c0.4-0.3,0.6-0.7,1-1.1c0.6-0.9,0.8-0.7,1.3-1.4c0.6-0.7,0.8-1.2,0.8-1.4
		s0.2-0.5,0.2-0.9c0-0.7-0.4-1.4-0.4-1.4v0.3c0,0,0.2-0.5,0-1.2c0-0.5-0.2-0.5-0.2-1.2c0-0.3,0-0.3,0-1.1c0-0.5,0-0.9,0-1.1
		c-0.2-0.5-0.2-0.5-0.4-1.1c-0.2-0.7,0-0.9-0.4-1.2c-0.4-0.3-0.6-0.2-1-0.5c-0.4-0.3-0.4-0.5-0.8-0.9c-0.4-0.2-0.4-0.2-1-0.3
		c-0.6-0.2-0.6-0.3-1-0.5c-0.4-0.2-0.6-0.2-1-0.2c-1.3-0.3-2.3-0.9-2.1-0.9l1,0.3c0,0-0.8-0.3-1.7-0.5c-1.2-0.2-2.3-0.2-2.3-0.2
		s0.6,0.2,0.8,0c0.2-0.2-1.2-0.5-1.2-0.9c0.2-0.3,1-0.2,1.5-0.5c0.6-0.5,0-1.4,0.2-1.4c0.2,0,0.4,0.3,0.4,0.3s0,0-0.6-1.2
		C175.9,436.6,176.3,435.9,176.3,435.9z"/>
	<path class="st2" d="M186.1,450"/>
	<path class="st2" d="M170.9,440.2c0.2,0,0.6,0,1,0c5.8,0,12.6,4.3,12.8,9c0.2,4.5-5.4,9.5-12.6,9.5c-7.1,0-12-5-12.2-9.2
		C159.9,445,165.3,440.6,170.9,440.2z"/>
	<path class="st2" d="M175.5,438.3c0.4-1.1,0.2-1.7-0.2-1.9c-0.8-0.3-2.9,1.1-6.5,4.3"/>
	<path class="st2" d="M174.8,460.6c0.4,1.1,0.2,1.7-0.2,1.9c-0.8,0.3-2.9-1.1-6.5-4.3"/>
</g>
<g>
	<path class="st2" d="M175.3,467.2c0.2-0.2,6.3,0.2,11.2,3.1c6.7,4.1,6.1,10.1,6.1,11.3c0,1.1-0.4,3.1-2.1,5.7
		c-1,1.4-2.3,3.3-5.4,4.9c-2.1,1.2-4.2,1.5-5.4,1.9c-1.5,0.3-4.4,1.1-5.4,0.3c-0.6-0.5,0.2-1.1-0.6-1.9c-0.6-0.7-1.3-0.9-1.3-1.5
		c0-0.2,0-0.5,0.6-0.9c0.4-0.2,0.8,0,1.7,0c0.6,0,1.2-0.2,2.1-0.3c0.6-0.2,1.2-0.2,1.9-0.5c0.4-0.2,0.4-0.2,1.2-0.5
		c0.6-0.3,0.8-0.3,1.2-0.5c0.4-0.2,0.6-0.3,0.8-0.5c0.4-0.3,0.6-0.7,1-1.1c0.6-0.9,0.8-0.7,1.3-1.4c0.6-0.7,0.8-1.2,0.8-1.4
		s0.2-0.5,0.2-0.9c0-0.7-0.4-1.4-0.4-1.4v0.3c0,0,0.2-0.5,0-1.2c0-0.5-0.2-0.5-0.2-1.2c0-0.3,0-0.3,0-1.1c0-0.5,0-0.9,0-1.1
		c-0.2-0.5-0.2-0.5-0.4-1.1c-0.2-0.7,0-0.9-0.4-1.2s-0.6-0.2-1-0.5c-0.4-0.3-0.4-0.5-0.8-0.9c-0.4-0.2-0.4-0.2-1-0.3
		c-0.6-0.2-0.6-0.3-1-0.5c-0.4-0.2-0.6-0.2-1-0.2c-1.3-0.3-2.3-0.9-2.1-0.9l1,0.3c0,0-0.8-0.3-1.7-0.5c-1.2-0.2-2.3-0.2-2.3-0.2
		s0.6,0.2,0.8,0c0.2-0.2-1.2-0.5-1.2-0.9c0.2-0.3,1-0.2,1.5-0.5c0.6-0.5,0-1.4,0.2-1.4c0.2,0,0.4,0.3,0.4,0.3s0,0-0.6-1.2
		C175,467.7,175.1,467.2,175.3,467.2z"/>
	<path class="st2" d="M185.1,481.4"/>
	<path class="st2" d="M170,471.5c0.2,0,0.6,0,1,0c5.8,0,12.6,4.3,12.8,9c0.2,4.5-5.4,9.5-12.6,9.5c-7.1,0-12-5-12.2-9.2
		C158.9,476.4,164.3,471.9,170,471.5z"/>
	<path class="st2" d="M174.6,469.6c0.4-1.1,0.2-1.7-0.2-1.9c-0.8-0.3-2.9,1.1-6.5,4.3"/>
	<path class="st2" d="M173.8,492c0.4,1.1,0.2,1.7-0.2,1.9c-0.8,0.3-2.9-1.1-6.5-4.3"/>
</g>
<g>
	<path class="st2" d="M111.1,348.4c-0.4-0.2,0.2-5.2,4.6-9.2c5.9-5.4,14.5-5,16.2-5c1.5,0,4.6,0.3,8.1,1.7c1.9,0.7,4.6,1.9,6.9,4.3
		c1.7,1.7,2.3,3.5,2.7,4.3c0.4,1.2,1.5,3.6,0.6,4.3c-0.6,0.5-1.3-0.2-2.9,0.3c-1,0.5-1.2,1.1-2.1,1.1c-0.2,0-0.8,0-1.2-0.3
		c-0.2-0.3,0-0.7,0-1.4c0-0.5-0.2-0.9-0.4-1.7c-0.2-0.5-0.4-1.1-0.8-1.5c-0.2-0.3-0.4-0.3-0.8-0.9c-0.4-0.5-0.4-0.7-0.8-1.1
		c-0.4-0.3-0.6-0.5-1-0.7c-0.6-0.3-1-0.5-1.5-0.7c-1.2-0.5-1-0.5-2.1-1.1c-1.2-0.5-1.9-0.7-2.1-0.7c-0.2,0-0.8-0.2-1.2-0.2
		c-1.2,0-2.1,0.2-2.1,0.3h0.6c0,0-0.8-0.2-1.7,0c-0.8,0-0.8,0.2-1.7,0.2c-0.6,0-0.6,0-1.5,0c-0.8,0-1.2,0-1.5,0
		c-0.6,0.2-0.6,0.2-1.5,0.3c-1,0.2-1.3,0-1.7,0.3c-0.4,0.2-0.2,0.3-0.8,0.9c-0.6,0.3-0.8,0.3-1.2,0.7c-0.2,0.2-0.2,0.2-0.6,0.7
		c-0.4,0.5-0.6,0.5-0.8,0.9c-0.2,0.3-0.2,0.5-0.4,0.9c-0.4,1.1-1.2,1.7-1.2,1.7l0.6-0.9c0,0-0.4,0.5-0.8,1.4
		c-0.4,1.1-0.4,1.9-0.4,1.9s0.2-0.5,0-0.5c-0.2-0.2-0.8,1.1-1.3,0.9c-0.4-0.2-0.2-0.9-0.8-1.2c-0.8-0.5-1.9,0-2.1-0.2
		c0-0.2,0.6-0.3,0.6-0.3s0,0-1.7,0.3C112,348.6,111.1,348.4,111.1,348.4z"/>
	<path class="st2" d="M131.6,340.5"/>
	<path class="st2" d="M117.1,352.7c0-0.2,0-0.5,0-0.9c0.2-4.7,6.1-10.2,13-10.4c6.5-0.2,13.7,4.3,13.7,10.2c0,5.7-7.3,9.9-13.3,9.9
		C124.4,361.7,117.7,357.3,117.1,352.7z"/>
	<path class="st2" d="M114.4,348.9c-1.5-0.2-2.5-0.2-2.9,0.2c-0.6,0.7,1.5,2.4,6.1,5.4"/>
	<path class="st2" d="M146.7,349.7c1.5-0.2,2.5-0.2,2.9,0.2c0.6,0.7-1.5,2.4-6.1,5.4"/>
</g>
<g>
	<path class="st2" d="M116.3,516c-0.4,0.2,0.2,5.2,4.6,9.2c5.9,5.4,14.5,5,16.2,5c1.5,0,4.6-0.3,8.1-1.7c1.9-0.7,4.6-1.9,6.9-4.3
		c1.7-1.7,2.3-3.5,2.7-4.3c0.4-1.2,1.5-3.6,0.6-4.3c-0.6-0.5-1.3,0.2-2.9-0.3c-1-0.5-1.2-1.1-2.1-1.1c-0.2,0-0.8,0-1.2,0.3
		c-0.2,0.3,0,0.7,0,1.4c0,0.5-0.2,0.9-0.4,1.7c-0.2,0.5-0.4,1.1-0.8,1.5c-0.2,0.3-0.4,0.3-0.8,0.9c-0.4,0.5-0.4,0.7-0.8,1.1
		c-0.4,0.3-0.6,0.5-1,0.7c-0.6,0.3-1,0.5-1.5,0.7c-1.2,0.5-1,0.5-2.1,1.1c-1.2,0.5-1.9,0.7-2.1,0.7s-0.8,0.2-1.2,0.2
		c-1.2,0-2.1-0.2-2.1-0.3h0.6c0,0-0.8,0.2-1.7,0c-0.8,0-0.8-0.2-1.7-0.2c-0.6,0-0.6,0-1.5,0c-0.8,0-1.2,0-1.5,0
		c-0.6-0.2-0.6-0.2-1.5-0.3c-1-0.2-1.3,0-1.7-0.3c-0.4-0.2-0.2-0.3-0.8-0.9c-0.6-0.3-0.8-0.3-1.2-0.7c-0.2-0.2-0.2-0.2-0.6-0.7
		c-0.4-0.5-0.6-0.5-0.8-0.9c-0.2-0.3-0.2-0.5-0.4-0.9c-0.4-1.1-1.2-1.7-1.2-1.7l0.6,0.9c0,0-0.4-0.5-0.8-1.4
		c-0.4-1.1-0.4-1.9-0.4-1.9s0.2,0.5,0,0.5c-0.2,0.2-0.8-1.1-1.3-0.9c-0.4,0.2-0.2,0.9-0.8,1.2c-0.8,0.5-1.9,0-2.1,0.2
		c0,0.2,0.6,0.3,0.6,0.3s0,0-1.7-0.3C117.3,515.6,116.5,516,116.3,516z"/>
	<path class="st2" d="M137,524"/>
	<path class="st2" d="M122.7,511.7c0,0.2,0,0.5,0,0.9c0.2,4.7,6.1,10.2,13,10.4c6.5,0.2,13.7-4.3,13.7-10.2c0-5.7-7.3-9.9-13.3-9.9
		C129.8,502.7,123.2,507,122.7,511.7z"/>
	<path class="st2" d="M120,515.5c-1.5,0.2-2.5,0.2-2.9-0.2c-0.6-0.7,1.5-2.4,6.1-5.4"/>
	<path class="st2" d="M152,514.8c1.5,0.2,2.5,0.2,2.9-0.2c0.6-0.7-1.5-2.4-6.1-5.4"/>
</g>
<g>
	<path class="st2" d="M373.9,283.6c-0.2-0.2-6.3,0.2-11.2,3.1c-6.7,4.1-6.1,10.1-6.1,11.3c0,1.1,0.4,3.1,2.1,5.7
		c1,1.4,2.3,3.3,5.4,4.9c2.1,1.2,4.2,1.5,5.4,1.9c1.5,0.3,4.4,1.1,5.4,0.3c0.6-0.5-0.2-1.1,0.6-1.9c0.6-0.7,1.3-0.9,1.3-1.5
		c0-0.2,0-0.5-0.6-0.9c-0.4-0.2-0.8,0-1.7,0c-0.6,0-1.2-0.2-2.1-0.3c-0.6-0.2-1.2-0.2-1.9-0.5c-0.4-0.2-0.4-0.2-1.2-0.5
		c-0.6-0.3-0.8-0.3-1.2-0.5c-0.4-0.2-0.6-0.3-0.8-0.5c-0.4-0.3-0.6-0.7-1-1.1c-0.6-0.9-0.8-0.7-1.3-1.4c-0.6-0.6-0.8-1.2-0.8-1.4
		s-0.2-0.5-0.2-0.9c0-0.7,0.4-1.4,0.4-1.4v0.3c0,0-0.2-0.5,0-1.2c0-0.5,0.2-0.5,0.2-1.2c0-0.3,0-0.3,0-1.1c0-0.5,0-0.9,0-1.1
		c0.2-0.5,0.2-0.5,0.4-1.1c0.2-0.7,0-0.9,0.4-1.2s0.6-0.2,1-0.5c0.4-0.3,0.4-0.5,0.8-0.9c0.4-0.2,0.4-0.2,1-0.3s0.6-0.3,1-0.5
		c0.4-0.2,0.6-0.2,1-0.2c1.3-0.3,2.3-0.9,2.1-0.9l-1,0.3c0,0,0.8-0.3,1.7-0.5c1.2-0.2,2.3-0.2,2.3-0.2s-0.6,0.2-0.8,0
		c-0.2-0.2,1.2-0.5,1.2-0.9c-0.2-0.3-1-0.2-1.5-0.5c-0.6-0.5,0-1.4-0.2-1.4c-0.2,0-0.4,0.3-0.4,0.3s0,0,0.6-1.2
		C374.3,284.1,374.1,283.6,373.9,283.6z"/>
	<path class="st2" d="M364.2,297.8"/>
	<path class="st2" d="M379.2,287.9c-0.2,0-0.6,0-1,0c-5.8,0-12.6,4.3-12.8,9c-0.2,4.5,5.4,9.5,12.6,9.5c7.1,0,12-5,12.2-9.2
		C390.3,292.7,385,288.2,379.2,287.9z"/>
	<path class="st2" d="M374.7,285.9c-0.4-1.1-0.2-1.7,0.2-1.9c0.8-0.3,2.9,1.1,6.5,4.3"/>
	<path class="st2" d="M375.5,308.3c-0.4,1.1-0.2,1.7,0.2,1.9c0.8,0.3,2.9-1.1,6.5-4.3"/>
</g>
<g>
	<path class="st2" d="M448.6,285.1c0.2-0.2,6.3,0.2,11.2,3.1c6.7,4.1,6.1,10.1,6.1,11.3c0,1.1-0.4,3.1-2.1,5.7
		c-1,1.4-2.3,3.3-5.4,4.9c-2.1,1.2-4.2,1.5-5.4,1.9c-1.5,0.3-4.4,1.1-5.4,0.3c-0.6-0.5,0.2-1.1-0.6-1.9c-0.6-0.7-1.3-0.9-1.3-1.5
		c0-0.2,0-0.5,0.6-0.9c0.4-0.2,0.8,0,1.7,0c0.6,0,1.2-0.2,2.1-0.3c0.6-0.2,1.2-0.2,1.9-0.5c0.4-0.2,0.4-0.2,1.2-0.5
		c0.6-0.3,0.8-0.3,1.2-0.5c0.4-0.2,0.6-0.3,0.8-0.5c0.4-0.3,0.6-0.7,1-1.1c0.6-0.9,0.8-0.7,1.3-1.4c0.6-0.7,0.8-1.2,0.8-1.4
		s0.2-0.5,0.2-0.9c0-0.7-0.4-1.4-0.4-1.4v0.3c0,0,0.2-0.5,0-1.2c0-0.5-0.2-0.5-0.2-1.2c0-0.3,0-0.3,0-1.1c0-0.5,0-0.9,0-1.1
		c-0.2-0.5-0.2-0.5-0.4-1.1c-0.2-0.7,0-0.9-0.4-1.2s-0.6-0.2-1-0.5c-0.4-0.3-0.4-0.5-0.8-0.9c-0.4-0.2-0.4-0.2-1-0.3s-0.6-0.3-1-0.5
		c-0.4-0.2-0.6-0.2-1-0.2c-1.3-0.3-2.3-0.9-2.1-0.9l1,0.3c0,0-0.8-0.3-1.7-0.5c-1.2-0.2-2.3-0.2-2.3-0.2s0.6,0.2,0.8,0
		c0.2-0.2-1.2-0.5-1.2-0.9c0.2-0.3,1-0.2,1.5-0.5c0.6-0.5,0-1.4,0.2-1.4s0.4,0.3,0.4,0.3s0,0-0.6-1.2
		C448.2,285.8,448.4,285.3,448.6,285.1z"/>
	<path class="st2" d="M458.3,299.5"/>
	<path class="st2" d="M443.2,289.4c0.2,0,0.6,0,1,0c5.8,0,12.6,4.3,12.8,9c0.2,4.5-5.4,9.5-12.6,9.5c-7.1,0-12-5-12.2-9.2
		C432.2,294.4,437.5,290,443.2,289.4z"/>
	<path class="st2" d="M447.8,287.7c0.4-1.1,0.2-1.7-0.2-1.9c-0.8-0.3-2.9,1.1-6.5,4.3"/>
	<path class="st2" d="M447,310c0.4,1.1,0.2,1.7-0.2,1.9c-0.8,0.3-2.9-1.1-6.5-4.3"/>
</g>
<path class="st20" d="M874.3,383.1c1-20.8,33.8-36.3,59.8-29.8c16.8,4.3,29.6,17.5,28.6,31.7c-1.3,18.2-24.8,33.1-49.8,30.6
	C890.7,413.6,873.5,398.5,874.3,383.1z"/>
<g>
	<g>
		<path class="st3" d="M912.5,428.7c0.4,0.7,1.5,3.5,4.6,5.2c1.9,1.1,3.5,1.2,6.9,1.5c3.1,0.3,5.8,0.5,9,0c3.3-0.5,7.1-1.2,9.5-4.1
			c0.6-0.5,2.1-2.6,2.3-5.2c0.2-4.9-5.2-8.3-4.6-8.8c0.6-0.5,4.8,2.3,4.6,2.6s-6.7-4.9-15.8-5.4c-2.1-0.2-6.7-0.2-11.2,2.3
			c-1.9,0.9-3.8,1.9-5.2,4.1C910.8,424.2,912.1,427.6,912.5,428.7z"/>
		<path class="st3" d="M913.5,436.6c3.5-2.1,6.7,2.3,13.3,2.9c8.8,0.7,13.9-5.7,17-3.1c1.5,1.4,0.4,3.3,2.7,7.6
			c1.7,3.3,3.3,3.6,3.1,4.9c-0.6,3.5-13.7,4-20.2,4.3c-9.7,0.5-20.2,0-20.2,0l0,0c0,0-2.5-1.5-2.7-3.5c-0.2-0.9,0.2-1.2,1.2-2.9
			c1.3-2.4,1.2-2.8,1.9-4.7C910,440.6,911.4,437.7,913.5,436.6z"/>
		<rect x="904.4" y="423.5" class="st3" width="5.6" height="13.5"/>
		<rect x="946.7" y="424.7" class="st3" width="5.2" height="12.1"/>
	</g>
	<rect x="908.9" y="428.2" width="4.6" height="2.3"/>
	<rect x="942.8" y="426.1" width="3.8" height="3.1"/>
</g>
<g>
	<g>
		<path class="st3" d="M899.9,338.5c0.4-0.7,1.5-3.5,4.6-5.2c1.9-1.1,3.5-1.2,6.9-1.5c3.1-0.3,5.8-0.5,9,0c3.3,0.5,7.1,1.2,9.5,4.1
			c0.6,0.5,2.1,2.6,2.3,5.2c0.2,4.9-5.2,8.3-4.6,8.8c0.6,0.5,4.8-2.3,4.6-2.6c-0.2-0.3-6.7,4.9-15.8,5.4c-2.1,0.2-6.7,0.2-11.2-2.3
			c-1.9-0.9-3.8-1.9-5.2-4.1C898,342.8,899.5,339.4,899.9,338.5z"/>
		<path class="st3" d="M900.7,330.5c3.5,2.1,6.7-2.3,13.3-2.9c8.8-0.7,13.9,5.7,17,3.1c1.5-1.4,0.4-3.3,2.7-7.6
			c1.7-3.3,3.3-3.6,3.1-4.9c-0.6-3.5-13.7-4-20.2-4.3c-9.7-0.5-20.2,0-20.2,0l0,0c0,0-2.5,1.5-2.7,3.5c-0.2,0.9,0.2,1.2,1.2,2.9
			c1.3,2.4,1.2,2.8,1.9,4.7C897.4,326.6,898.8,329.3,900.7,330.5z"/>
		<rect x="891.9" y="330.2" class="st3" width="5.6" height="13.5"/>
		<rect x="934.1" y="330.2" class="st3" width="5.2" height="12.1"/>
	</g>
	<rect x="896.3" y="336.6" width="4.6" height="2.3"/>
	<rect x="930.2" y="337.7" width="3.8" height="3.1"/>
</g>
<g>
	<g>
		<path class="st3" d="M860.4,399.3c-1-0.2-4.6-1.2-6.9-3.5c-1.3-1.4-1.7-2.6-2.1-5.2c-0.4-2.4-0.8-4.3,0-6.9
			c0.8-2.4,1.5-5.4,5.6-7.3c0.8-0.3,3.3-1.7,6.9-1.7c6.5-0.2,11,3.8,11.6,3.5s-3.1-3.6-3.5-3.5c-0.6,0.2,6.3,5,7.1,12.1
			c0.2,1.5,0.2,5-2.9,8.7c-1.2,1.4-2.7,2.9-5.6,3.8C866.4,400.6,861.6,399.4,860.4,399.3z"/>
		<path class="st3" d="M850,398.6c2.7-2.6-3.1-5-3.8-10.2c-1-6.6,7.7-10.7,4.2-13c-1.7-1.2-4.4-0.3-10.1-2.1
			c-4.4-1.4-4.8-2.4-6.3-2.4c-4.4,0.5-5.4,10.4-5.8,15.4c-0.6,7.5,0,15.4,0,15.4l0,0c0,0,2.1,1.9,4.6,2.1c1.2,0,1.5-0.2,3.8-0.9
			c3.3-0.9,3.8-0.9,6.1-1.5C844.8,401.2,848.4,400.2,850,398.6z"/>
		<rect x="849.5" y="401" class="st3" width="17.7" height="4.3"/>
		<rect x="849.5" y="369.2" class="st3" width="16" height="4"/>
	</g>
	<rect x="857.9" y="398.4" width="3.1" height="3.5"/>
	<rect x="859.5" y="373.2" width="4.2" height="2.9"/>
</g>
<g>
	<g>
		<path class="st3" d="M979.7,395.5c1-0.2,4.6-1.2,6.9-3.5c1.3-1.4,1.7-2.6,2.1-5.2c0.4-2.4,0.8-4.3,0-6.9c-0.8-2.4-1.5-5.4-5.6-7.3
			c-0.8-0.3-3.3-1.7-6.9-1.7c-6.5-0.2-11,3.8-11.6,3.5c-0.6-0.3,3.1-3.6,3.5-3.5c0.6,0.2-6.3,5-7.1,12.1c-0.2,1.5-0.2,5,2.9,8.7
			c1.2,1.4,2.7,2.9,5.6,3.8C973.8,396.9,978.5,395.9,979.7,395.5z"/>
		<path class="st3" d="M990.2,394.8c-2.7-2.6,3.1-5,3.8-10.2c1-6.6-7.7-10.7-4.2-13c1.7-1.2,4.4-0.3,10.1-2.1
			c4.4-1.4,4.8-2.4,6.3-2.4c4.4,0.5,5.4,10.4,5.8,15.4c0.6,7.5,0,15.4,0,15.4l0,0c0,0-2.1,1.9-4.6,2.1c-1.2,0-1.5-0.2-3.8-0.9
			c-3.3-0.9-3.8-0.9-6.1-1.5C995.4,397.4,991.7,396.4,990.2,394.8z"/>
		<rect x="972.9" y="397.3" class="st3" width="17.7" height="4.3"/>
		<rect x="974.7" y="365.4" class="st3" width="16" height="4"/>
	</g>
	<rect x="979.2" y="394.7" width="3.1" height="3.5"/>
	<rect x="976.4" y="369.4" width="4.2" height="2.9"/>
</g>
<g>
	<g>
		<path class="st3" d="M79.1,709.5c0.8,0.3,3.3,1.4,5,4c1,1.5,1.2,3.1,1.5,6.1c0.4,2.8,0.6,5,0,8.1c-0.6,2.9-1.2,6.2-4,8.7
			c-0.6,0.5-2.3,1.9-5,2.1c-4.6,0.2-7.9-4.5-8.4-4c-0.4,0.5,2.1,4.1,2.5,4c0.4-0.2-4.6-5.9-5-14.2c-0.2-1.7-0.2-5.9,2.1-10.1
			c1-1.7,1.9-3.5,4-4.5C74.9,708,78.3,709.2,79.1,709.5z"/>
		<path class="st3" d="M86.8,710.4c-1.9,3.1,2.1,5.9,2.7,11.9c0.8,7.8-5.6,12.5-3.1,15.2c1.3,1.4,3.1,0.3,7.3,2.4
			c3.1,1.5,3.5,2.9,4.6,2.8c3.3-0.5,3.8-12.3,4-18.2c0.4-8.7,0-18.2,0-18.2l0,0c0,0-1.5-2.3-3.3-2.4c-0.8-0.2-1.2,0.2-2.7,1.1
			c-2.3,1.1-2.7,1.1-4.4,1.7C90.4,707.2,87.9,708.7,86.8,710.4z"/>
		<rect x="74.5" y="702.5" class="st3" width="12.6" height="5"/>
		<rect x="75.6" y="740.2" class="st3" width="11.4" height="4.7"/>
	</g>
	<rect x="78.8" y="706.3" width="2.1" height="4"/>
	<rect x="76.8" y="736.7" width="3.1" height="3.5"/>
</g>
<g>
	<g>
		<path class="st3" d="M78.7,760.4c0.8,0.3,3.3,1.4,5,4c1,1.5,1.2,3.1,1.5,6.1c0.4,2.8,0.6,5,0,8.1c-0.6,2.9-1.2,6.2-4,8.7
			c-0.6,0.5-2.3,1.9-5,2.1c-4.6,0.2-7.9-4.5-8.4-4c-0.4,0.5,2.1,4.1,2.5,4c0.4-0.2-4.6-5.9-5-14.2c-0.2-1.7-0.2-5.9,2.1-10.1
			c1-1.7,1.9-3.5,4-4.5C74.6,758.9,78,760.1,78.7,760.4z"/>
		<path class="st3" d="M86.4,761.1c-1.9,3.1,2.1,5.9,2.7,11.9c0.8,7.8-5.6,12.5-3.1,15.2c1.3,1.4,3.1,0.3,7.3,2.4
			c3.1,1.5,3.5,2.9,4.6,2.8c3.3-0.5,3.8-12.3,4-18.2c0.4-8.7,0-18.2,0-18.2l0,0c0,0-1.5-2.3-3.3-2.4c-0.8-0.2-1.2,0.2-2.7,1.1
			c-2.3,1.1-2.7,1.1-4.4,1.7C90,758.2,87.4,759.4,86.4,761.1z"/>
		<rect x="74" y="753.2" class="st3" width="12.6" height="5"/>
		<rect x="75.1" y="791.1" class="st3" width="11.4" height="4.7"/>
	</g>
	<rect x="78.3" y="757.3" width="2.1" height="4"/>
	<rect x="76.3" y="787.6" width="3.1" height="3.5"/>
</g>
<g>
	<g>
		<path class="st3" d="M78.7,812.9c0.8,0.3,3.3,1.4,5,4c1,1.5,1.2,3.1,1.5,6.1c0.4,2.8,0.6,5,0,8.1c-0.6,2.9-1.2,6.2-4,8.7
			c-0.6,0.5-2.3,1.9-5,2.1c-4.6,0.2-7.9-4.5-8.4-4c-0.4,0.5,2.1,4.1,2.5,4c0.4-0.2-4.6-5.9-5-14.2c-0.2-1.7-0.2-5.9,2.1-10.1
			c1-1.7,1.9-3.5,4-4.5C74.6,811.1,78,812.5,78.7,812.9z"/>
		<path class="st3" d="M86.4,813.5c-1.9,3.1,2.1,5.9,2.7,11.9c0.8,7.8-5.6,12.5-3.1,15.2c1.3,1.4,3.1,0.3,7.3,2.4
			c3.1,1.5,3.5,2.9,4.6,2.8c3.3-0.5,3.8-12.3,4-18.2c0.4-8.7,0-18.2,0-18.2l0,0c0,0-1.5-2.3-3.3-2.4c-0.8-0.2-1.2,0.2-2.7,1.1
			c-2.3,1.1-2.7,1.1-4.4,1.7C90,810.6,87.4,811.8,86.4,813.5z"/>
		<rect x="73.9" y="805.6" class="st3" width="12.6" height="5"/>
		<rect x="75.1" y="843.5" class="st3" width="11.4" height="4.7"/>
	</g>
	<rect x="78.3" y="809.6" width="2.1" height="4"/>
	<rect x="76.3" y="840" width="3.1" height="3.5"/>
</g>
<g>
	<g>
		<path class="st3" d="M78.5,863.1c0.8,0.3,3.3,1.4,5,4c1,1.5,1.2,3.1,1.5,6.1c0.4,2.8,0.6,5,0,8.1c-0.6,2.9-1.2,6.2-4,8.7
			c-0.6,0.5-2.3,1.9-5,2.1c-4.6,0.2-7.9-4.5-8.4-4c-0.4,0.5,2.1,4.1,2.5,4c0.4-0.2-4.6-5.9-5-14.2c-0.2-1.7-0.2-5.9,2.1-10.1
			c1-1.7,1.9-3.5,4-4.5C74.4,861.3,77.6,862.7,78.5,863.1z"/>
		<path class="st3" d="M86,863.7c-1.9,3.1,2.1,5.9,2.7,11.9c0.8,7.8-5.6,12.5-3.1,15.2c1.3,1.4,3.1,0.3,7.3,2.4
			c3.1,1.5,3.5,2.9,4.6,2.8c3.3-0.5,3.8-12.3,4-18.2c0.4-8.7,0-18.2,0-18.2l0,0c0,0-1.5-2.3-3.3-2.4c-0.8-0.2-1.2,0.2-2.7,1.1
			c-2.3,1.1-2.7,1.1-4.4,1.7C89.9,860.8,87.2,862,86,863.7z"/>
		<rect x="73.7" y="855.9" class="st3" width="12.6" height="5"/>
		<rect x="74.9" y="893.5" class="st3" width="11.4" height="4.7"/>
	</g>
	<rect x="78.2" y="859.7" width="2.1" height="4"/>
	<rect x="76.1" y="890" width="3.1" height="3.5"/>
</g>
<g>
	<g>
		<path class="st3" d="M80.1,913.1c0.8,0.3,3.3,1.4,5,4c1,1.5,1.2,3.1,1.5,6.1c0.4,2.8,0.6,5,0,8.1c-0.6,2.9-1.2,6.2-4,8.7
			c-0.6,0.5-2.3,1.9-5,2.1c-4.6,0.2-7.9-4.5-8.4-4c-0.4,0.5,2.1,4.1,2.5,4c0.4-0.2-4.6-5.9-5-14.2c-0.2-1.7-0.2-5.9,2.1-10.1
			c1-1.7,1.9-3.5,4-4.5C75.8,911.6,79.1,912.7,80.1,913.1z"/>
		<path class="st3" d="M87.6,913.7c-1.9,3.1,2.1,5.9,2.7,11.9c0.8,7.8-5.6,12.5-3.1,15.2c1.3,1.4,3.1,0.3,7.3,2.4
			c3.1,1.5,3.5,2.9,4.6,2.8c3.3-0.5,3.8-12.3,4-18.2c0.4-8.7,0-18.2,0-18.2l0,0c0,0-1.5-2.3-3.3-2.4c-0.8-0.2-1.2,0.2-2.7,1.1
			c-2.3,1.1-2.7,1.1-4.4,1.7C91.4,910.8,88.7,912,87.6,913.7z"/>
		<rect x="75.2" y="906" class="st3" width="12.6" height="5"/>
		<rect x="76.3" y="943.6" class="st3" width="11.4" height="4.7"/>
	</g>
	<rect x="79.6" y="909.9" width="2.1" height="4"/>
	<rect x="77.6" y="940.2" width="3.1" height="3.5"/>
</g>
<rect id="driver_x5F_1_1_" x="1047.3" y="26.9" class="st21" width="160.2" height="10"/>
<rect id="driver_x5F_7_1_" x="1040.4" y="510.9" class="st21" width="174.1" height="10"/>
<rect id="driver_x5F_4_1_" x="1045.3" y="269.9" class="st21" width="175.2" height="10.2"/>
<rect id="driver_x5F_2_1_" x="1207.4" y="26.9" class="st21" width="137.1" height="10"/>
<rect id="driver_x5F_5_1_" x="1280.5" y="269.9" class="st21" width="128.5" height="10.2"/>
<rect id="driver_x5F_6_1_" x="1406.5" y="269.9" class="st21" width="132.8" height="10.2"/>
<rect id="driver_x5F_8_1_" x="1277.5" y="499.9" class="st21" width="131.4" height="9.7"/>
<rect id="driver_x5F_9_1_" x="1408.9" y="499.9" class="st21" width="134.6" height="9.7"/>
<rect id="driver_x5F_10_1_" x="1277.5" y="722.9" class="st21" width="131.4" height="10.5"/>
<rect id="driver_x5F_11_1_" x="1407.9" y="722.9" class="st21" width="137.6" height="10.5"/>
<rect id="driver_x5F_12_1_" x="1277.5" y="938.9" class="st21" width="93" height="11"/>
<rect id="driver_x5F_13_1_" x="1446.5" y="938.9" class="st21" width="94.8" height="11"/>
<rect id="driver_x5F_16_1_" x="828.4" y="750" transform="matrix(6.123234e-17 -1 1 6.123234e-17 142.5239 1653.4767)" class="st21" width="139.1" height="11"/>
<rect id="driver_x5F_17_1_" x="834.1" y="881.3" transform="matrix(6.123234e-17 -1 1 6.123234e-17 11.1855 1784.8149)" class="st21" width="127.8" height="11"/>
<rect id="driver_x5F_14_1_" x="1110.5" y="749.1" transform="matrix(6.123234e-17 -1 1 6.123234e-17 418.284 1927.6354)" class="st21" width="124.9" height="11.1"/>
<rect id="driver_x5F_15_1_" x="1106.9" y="877.5" transform="matrix(6.123234e-17 -1 1 6.123234e-17 289.9963 2056.0042)" class="st21" width="132.2" height="11"/>
<rect id="driver_x5F_27_1_" x="377.5" y="788.9" class="st21" width="228" height="11"/>
<rect id="driver_x5F_28_1_" x="377.5" y="821.9" class="st21" width="227" height="10.4"/>
<rect id="driver_x5F_29_1_" x="157.8" y="769.3" transform="matrix(6.123234e-17 -1 1 6.123234e-17 -571.1462 978.7525)" class="st21" width="92" height="11.4"/>
<rect id="driver_x5F_30_1_" x="157.2" y="861.9" transform="matrix(6.123234e-17 -1 1 6.123234e-17 -663.7682 1071.3745)" class="st21" width="93.3" height="11.4"/>
<rect id="driver_x5F_31_1_" x="103.5" y="769.8" transform="matrix(6.123234e-17 -1 1 6.123234e-17 -625.4155 925.294)" class="st21" width="92.9" height="11.1"/>
<rect id="driver_x5F_32_1_" x="103.4" y="862.9" transform="matrix(6.123234e-17 -1 1 6.123234e-17 -718.5375 1018.416)" class="st21" width="93.1" height="11.1"/>
<rect id="ac_x5F_3_1_" x="1077.5" y="793.9" class="st22" width="67" height="67"/>
<rect id="driver_x5F_56_1_" x="478.5" y="378.9" class="st23" width="62" height="107"/>
<circle id="driver_x5F_55" class="st21" cx="918" cy="384.4" r="21.5"/>
<circle id="driver_x5F_22_1_" class="st21" cx="766" cy="812.4" r="21.5"/>
<rect id="ac_x5F_1_1_" x="1278.5" y="167.9" class="st22" width="64" height="64"/>
<rect id="ac_x5F_2_1_" x="1277.5" y="776.9" class="st22" width="65" height="67"/>
<rect id="ac_x5F_4_1_" x="686.5" y="770.9" class="st22" width="52" height="52"/>
<rect id="ac_x5F_5_1_" x="443.5" y="775.9" class="st22" width="77" height="62"/>
<rect id="ac_x5F_8_1_" x="104.5" y="394.9" class="st22" width="59" height="59"/>
<rect id="ac_x5F_10_1_" x="942.5" y="379.9" class="st22" width="51" height="51"/>
<rect id="ac_x5F_6_1_" x="44.5" y="657.5" class="st24" width="70" height="14.4"/>
<rect id="ac_x5F_9_1_" x="543.5" y="348.9" class="st22" width="51" height="51"/>
<circle id="driver_x5F_43_1_" class="st21" cx="690" cy="348.4" r="9.5"/>
<circle id="driver_x5F_39_1_" class="st21" cx="389" cy="299.4" r="9.5"/>
<circle id="driver_x5F_40_1_" class="st21" cx="430.5" cy="299.9" r="10"/>
<circle id="driver_x5F_44_1_" class="st23" cx="690" cy="489" r="9.5"/>
<circle id="driver_x5F_42_1_" class="st23" cx="553" cy="493.4" r="9.5"/>
<circle id="driver_x5F_41_1_" class="st21" cx="403" cy="490.4" r="9.5"/>
<circle id="driver_x5F_45_3_" class="st21" cx="815" cy="275" r="9.5"/>
<circle id="driver_x5F_45_2_" class="st21" cx="1012" cy="272.4" r="9.5"/>
<circle id="driver_x5F_47_1_" class="st21" cx="815" cy="493.4" r="9.5"/>
<circle id="driver_x5F_48_1_" class="st21" cx="1012" cy="492.4" r="9.5"/>
<rect id="ac_x5F_7_1_" x="115.5" y="657.5" class="st24" width="65" height="14"/>
<circle id="driver_x5F_18_1_" class="st21" cx="662" cy="666.4" r="9.5"/>
<circle id="driver_x5F_19_1_" class="st21" cx="853" cy="666.4" r="9.5"/>
<circle id="driver_x5F_20_1_" class="st21" cx="662" cy="940.4" r="9.5"/>
<circle id="driver_x5F_21_1_" class="st21" cx="852" cy="937.4" r="9.5"/>
<circle id="driver_x5F_24_1_" class="st21" cx="630" cy="666.4" r="9.5"/>
<circle id="driver_x5F_26_1_" class="st21" cx="630" cy="940.4" r="9.5"/>
<circle id="driver_x5F_23_1_" class="st21" cx="318" cy="674.4" r="9.5"/>
<circle id="driver_x5F_25_1_" class="st21" cx="318" cy="940.4" r="9.5"/>
<circle id="driver_x5F_49_1_" class="st21" cx="42" cy="607.4" r="9.5"/>
<circle id="driver_x5F_50_1_" class="st21" cx="194" cy="605.4" r="9.5"/>
<circle id="driver_x5F_51_1_" class="st21" cx="351" cy="607.4" r="9.5"/>
<circle id="driver_x5F_52_1_" class="st21" cx="530" cy="607.4" r="9.5"/>
<circle id="driver_x5F_53_1_" class="st21" cx="704" cy="607.4" r="9.5"/>
<circle id="driver_x5F_54_1_" class="st21" cx="887" cy="607.4" r="9.5"/>
<circle id="driver_x5F_55_1_" class="st21" cx="1085" cy="607.4" r="9.5"/>
<circle id="driver_x5F_37_1_" class="st21" cx="264" cy="542" r="9.5"/>
<circle id="driver_x5F_34_1_" class="st21" cx="219" cy="306.4" r="9.5"/>
<circle id="driver_x5F_33_1_" class="st21" cx="52" cy="305.4" r="9.5"/>
<circle id="driver_x5F_35_1_" class="st21" cx="62" cy="533.4" r="9.5"/>
<rect id="driver_x5F_38_1_" x="236.2" y="393.7" transform="matrix(6.123234e-17 -1 1 6.123234e-17 -32.6941 764.1561)" class="st21" width="259" height="9.5"/>
<rect id="driver_x5F_3_1_" x="1409.5" y="24.8" class="st21" width="132.8" height="10.2"/>
<circle id="driver_x5F_36_1_" class="st21" cx="198" cy="529.4" r="9.5"/>
<polygon id="zone_x5F_1" class="st25" points="1040,12 1544,9 1544.3,367.2 1036.3,363 "/>
<polygon id="zone__x5F_2" class="st25" points="1040,363 1548,367 1545,950 867,949 870.2,519.9 1040,516 1040.3,371.4 "/>
<rect id="group_x5F_4" x="651" y="655" class="st26" width="215" height="298"/>
<rect id="zone_x5F_4" x="305" y="655" class="st26" width="340" height="297"/>
<rect id="zone_x5F_5" x="20" y="655" class="st26" width="269" height="297"/>
<rect id="group_x5F_1" x="798" y="257" class="st26" width="238" height="247"/>
<rect id="group__x5F_3" x="23" y="264" class="st26" width="270" height="278"/>
<rect id="group_x5F_2" x="293" y="266" class="st26" width="498" height="268"/>
<rect x="666" y="536" class="st17" width="90" height="3"/>
<text id="ambientsensor1" transform="matrix(0.8181 0 0 1 983.3125 796.8232)" class="st27 st28 st29">ambient sensor</text>
<text id="ambientsensor2" transform="matrix(0.8181 0 0 1 1166.1776 179.3523)" class="st27 st28 st29">ambient sensor</text>
<text id="ambientsensor4" transform="matrix(0.8181 0 0 1 1281.192 415.5736)" class="st27 st28 st29">ambient sensor</text>
<text id="ambientsensor5" transform="matrix(0.8181 0 0 1 1359.192 614.5736)" class="st27 st28 st29">ambient sensor</text>
<text id="ambientsensor3" transform="matrix(0.8181 0 0 1 1087.192 425.5736)" class="st27 st28 st29">ambient sensor</text>
<text id="multisensor1" transform="matrix(0.9022 0 0 1 682.3043 751.417)" class="st27 st28 st30">multisensor</text>
<g id="ambientsensor2humidity" class="st27">
</g>
<text id="ambientsensor3humidity" transform="matrix(0.8181 0 0 1 1087.144 406.6089)" class="st27 st28 st29">ambient sensor H</text>
<text id="ambientsensor4humidity" transform="matrix(0.8181 0 0 1 1280.144 396.6089)" class="st27 st28 st29">ambient sensor H</text>
<text id="ambientsensor1humidity" transform="matrix(0.8181 0 0 1 982.144 771.6089)" class="st27 st28 st29">ambient sensor H</text>
<text id="ambientsensor5humidity" transform="matrix(0.8181 0 0 1 1359.144 638.6089)" class="st27 st28 st29">ambient sensor H</text>
<text id="multisensor1pm10" transform="matrix(0.7199 0 0 1 766.2944 724.6123)" class="st27 st28 st30">multisensor</text>
<text id="multisensor1lux" transform="matrix(0.7599 0 0 1 766.2939 748.8428)" class="st27 st28 st31">multisensor</text>
<text id="multisensor1co2" transform="matrix(0.8651 0 0 1 766.2944 768.751)" class="st27 st28 st32">multisensor</text>
<text id="multisensor1pressure" transform="matrix(0.8484 0 0 1 766.2944 785.0938)" class="st27 st28 st33">multisensor</text>
<text id="multisensor1tvoc" transform="matrix(0.8132 -3.065726e-03 3.770000e-03 1 686.2545 878.7531)" class="st27 st28 st30">multisensor</text>
<text id="multisensor1noise" transform="matrix(0.8132 0 0 1 686.2944 901.6123)" class="st27 st28 st30">multisensor</text>
<text id="ambientsensor2humidity_1_" transform="matrix(0.8181 0 0 1 1166.1442 162.609)" class="st27 st28 st29">ambient sensor H</text>
<line id="line1" class="st34" x1="728.5" y1="242.5" x2="728.5" y2="449.5"/>
<path id="line2" class="st34" d="M729.5,449.5c0,0,105.6-1.5,107.1,0"/>
<line id="line4" class="st34" x1="727" y1="449.5" x2="548" y2="449.5"/>
<line id="line3" class="st34" x1="728.5" y1="451" x2="728.5" y2="597"/>
<text transform="matrix(0.3161 0 0 1 630.6563 77.4985)" class="st35 st28 st36">{&quot;id&quot;:1,&quot;name&quot;:&quot;Digitectura Entrance&quot;,&quot;paths&quot;:[2,3,4],&quot;distance&quot;:4}</text>
<text transform="matrix(0.5134 0 0 1 618.9995 107.9297)" class="st35 st28 st37">{&quot;id&quot;:2,&quot;name&quot;:&quot;conference_1&quot;,&quot;paths&quot;:[1,3,4],&quot;distance&quot;:1}</text>
<path class="st38" d="M728.5,597.5"/>
<line id="line5" class="st34" x1="728.5" y1="597.5" x2="1019.5" y2="597.5"/>
<line id="line7" class="st34" x1="1020.5" y1="597.5" x2="1020.5" y2="765.5"/>
<line id="line8" class="st34" x1="1020.5" y1="765.5" x2="962.5" y2="765.5"/>
<line id="line10" class="st34" x1="1020" y1="765.5" x2="1097" y2="764.5"/>
<line id="line9" class="st34" x1="1020.5" y1="766" x2="1020.5" y2="875"/>
<text transform="matrix(0.4962 0 0 1 654.625 183.2891)" class="st35 st28 st39">{&quot;id&quot;:3,&quot;paths&quot;:[4,1,2,5],&quot;distance&quot;:4}</text>
<text transform="matrix(0.9902 0 0 1 654.625 200.5996)" class="st35 st28 st40">{&quot;id&quot;:4,&quot;paths&quot;:[1,2,3],&quot;distance&quot;:3}</text>
<path class="st38" d="M724.5,596.5"/>
<line id="line8_1_" class="st34" x1="1017.9" y1="874.9" x2="959.9" y2="874.9"/>
<line id="line10_1_" class="st34" x1="1017.4" y1="874.9" x2="1094.4" y2="873.9"/>
<text transform="matrix(1 0 0 1 637.2266 219.5562)" class="st35 st28 st41">{&quot;id&quot;:5,&quot;paths&quot;:[3,7],&quot;distance&quot;:5}</text>
<text transform="matrix(1 0 0 1 641.6514 234.6748)" class="st35 st28 st41">{&quot;id&quot;:7,&quot;paths&quot;:[8,9,10,5],&quot;distance&quot;:3}</text>
<text transform="matrix(1 0 0 1 626.4258 150.4658)" class="st35 st28 st41">{&quot;id&quot;:8,&quot;name&quot;:&quot;
497&quot;,&quot;paths&quot;:[7,9,10],&quot;distance&quot;:1}</text>
</svg>
